<svg width="1363" height="167" viewBox="0 0 1363 167" fill="none" xmlns="http://www.w3.org/2000/svg">
<rect width="1363" height="167" rx="15" fill="#F0F0F0"/>
<path d="M0 15C0 6.71573 6.71573 0 15 0H37V167H15C6.71573 167 0 160.284 0 152V15Z" fill="#AACEE8"/>
<path d="M100.906 50.9219L93.3945 48.2383V45.0859L103.602 49.375V51.6367L100.906 50.9219ZM93.3945 53.1719L100.918 50.4297L103.602 49.7852V52.0352L93.3945 56.3242V53.1719ZM118.836 43.8555L114.195 58H110.457L116.797 40.9375H119.176L118.836 43.8555ZM122.691 58L118.039 43.8555L117.664 40.9375H120.066L126.441 58H122.691ZM122.48 51.6484V54.4023H113.469V51.6484H122.48ZM137.234 40.9375H140.738V52.2109C140.738 53.5234 140.457 54.6289 139.895 55.5273C139.34 56.4258 138.57 57.1016 137.586 57.5547C136.609 58.0078 135.484 58.2344 134.211 58.2344C132.938 58.2344 131.805 58.0078 130.812 57.5547C129.828 57.1016 129.055 56.4258 128.492 55.5273C127.938 54.6289 127.66 53.5234 127.66 52.2109V40.9375H131.176V52.2109C131.176 52.9766 131.297 53.6016 131.539 54.0859C131.781 54.5703 132.129 54.9258 132.582 55.1523C133.043 55.3789 133.586 55.4922 134.211 55.4922C134.852 55.4922 135.395 55.3789 135.84 55.1523C136.293 54.9258 136.637 54.5703 136.871 54.0859C137.113 53.6016 137.234 52.9766 137.234 52.2109V40.9375ZM152.516 53.5352C152.516 53.2305 152.469 52.957 152.375 52.7148C152.289 52.4648 152.125 52.2383 151.883 52.0352C151.641 51.8242 151.301 51.6172 150.863 51.4141C150.426 51.2109 149.859 51 149.164 50.7812C148.391 50.5312 147.656 50.25 146.961 49.9375C146.273 49.625 145.664 49.2617 145.133 48.8477C144.609 48.4258 144.195 47.9375 143.891 47.3828C143.594 46.8281 143.445 46.1836 143.445 45.4492C143.445 44.7383 143.602 44.0938 143.914 43.5156C144.227 42.9297 144.664 42.4297 145.227 42.0156C145.789 41.5938 146.453 41.2695 147.219 41.043C147.992 40.8164 148.84 40.7031 149.762 40.7031C151.02 40.7031 152.117 40.9297 153.055 41.3828C153.992 41.8359 154.719 42.457 155.234 43.2461C155.758 44.0352 156.02 44.9375 156.02 45.9531H152.527C152.527 45.4531 152.422 45.0156 152.211 44.6406C152.008 44.2578 151.695 43.957 151.273 43.7383C150.859 43.5195 150.336 43.4102 149.703 43.4102C149.094 43.4102 148.586 43.5039 148.18 43.6914C147.773 43.8711 147.469 44.1172 147.266 44.4297C147.062 44.7344 146.961 45.0781 146.961 45.4609C146.961 45.75 147.031 46.0117 147.172 46.2461C147.32 46.4805 147.539 46.6992 147.828 46.9023C148.117 47.1055 148.473 47.2969 148.895 47.4766C149.316 47.6562 149.805 47.832 150.359 48.0039C151.289 48.2852 152.105 48.6016 152.809 48.9531C153.52 49.3047 154.113 49.6992 154.59 50.1367C155.066 50.5742 155.426 51.0703 155.668 51.625C155.91 52.1797 156.031 52.8086 156.031 53.5117C156.031 54.2539 155.887 54.918 155.598 55.5039C155.309 56.0898 154.891 56.5859 154.344 56.9922C153.797 57.3984 153.145 57.707 152.387 57.918C151.629 58.1289 150.781 58.2344 149.844 58.2344C149 58.2344 148.168 58.125 147.348 57.9062C146.527 57.6797 145.781 57.3398 145.109 56.8867C144.445 56.4336 143.914 55.8555 143.516 55.1523C143.117 54.4492 142.918 53.6172 142.918 52.6562H146.445C146.445 53.1875 146.527 53.6367 146.691 54.0039C146.855 54.3711 147.086 54.668 147.383 54.8945C147.688 55.1211 148.047 55.2852 148.461 55.3867C148.883 55.4883 149.344 55.5391 149.844 55.5391C150.453 55.5391 150.953 55.4531 151.344 55.2812C151.742 55.1094 152.035 54.8711 152.223 54.5664C152.418 54.2617 152.516 53.918 152.516 53.5352ZM166.051 40.9375V58H162.547V40.9375H166.051ZM171.301 40.9375V43.6914H157.379V40.9375H171.301ZM184.801 54.4375L188.82 40.9375H192.734L186.793 58H184.215L184.801 54.4375ZM181.098 40.9375L185.105 54.4375L185.715 58H183.113L177.207 40.9375H181.098ZM197.68 45.3203V58H194.293V45.3203H197.68ZM194.082 42.0156C194.082 41.5234 194.254 41.1172 194.598 40.7969C194.941 40.4766 195.402 40.3164 195.98 40.3164C196.551 40.3164 197.008 40.4766 197.352 40.7969C197.703 41.1172 197.879 41.5234 197.879 42.0156C197.879 42.5078 197.703 42.9141 197.352 43.2344C197.008 43.5547 196.551 43.7148 195.98 43.7148C195.402 43.7148 194.941 43.5547 194.598 43.2344C194.254 42.9141 194.082 42.5078 194.082 42.0156ZM203.844 48.0859V58H200.469V45.3203H203.645L203.844 48.0859ZM207.664 45.2383L207.605 48.3672C207.441 48.3438 207.242 48.3242 207.008 48.3086C206.781 48.2852 206.574 48.2734 206.387 48.2734C205.91 48.2734 205.496 48.3359 205.145 48.4609C204.801 48.5781 204.512 48.7539 204.277 48.9883C204.051 49.2227 203.879 49.5078 203.762 49.8438C203.652 50.1797 203.59 50.5625 203.574 50.9922L202.895 50.7812C202.895 49.9609 202.977 49.207 203.141 48.5195C203.305 47.8242 203.543 47.2188 203.855 46.7031C204.176 46.1875 204.566 45.7891 205.027 45.5078C205.488 45.2266 206.016 45.0859 206.609 45.0859C206.797 45.0859 206.988 45.1016 207.184 45.1328C207.379 45.1562 207.539 45.1914 207.664 45.2383ZM216.055 45.3203V47.7109H208.672V45.3203H216.055ZM210.5 42.1914H213.875V54.1797C213.875 54.5469 213.922 54.8281 214.016 55.0234C214.117 55.2188 214.266 55.3555 214.461 55.4336C214.656 55.5039 214.902 55.5391 215.199 55.5391C215.41 55.5391 215.598 55.5312 215.762 55.5156C215.934 55.4922 216.078 55.4688 216.195 55.4453L216.207 57.9297C215.918 58.0234 215.605 58.0977 215.27 58.1523C214.934 58.207 214.562 58.2344 214.156 58.2344C213.414 58.2344 212.766 58.1133 212.211 57.8711C211.664 57.6211 211.242 57.2227 210.945 56.6758C210.648 56.1289 210.5 55.4102 210.5 54.5195V42.1914ZM225.477 54.9648V45.3203H228.852V58H225.676L225.477 54.9648ZM225.852 52.3633L226.848 52.3398C226.848 53.1836 226.75 53.9688 226.555 54.6953C226.359 55.4141 226.066 56.0391 225.676 56.5703C225.285 57.0938 224.793 57.5039 224.199 57.8008C223.605 58.0898 222.906 58.2344 222.102 58.2344C221.484 58.2344 220.914 58.1484 220.391 57.9766C219.875 57.7969 219.43 57.5195 219.055 57.1445C218.688 56.7617 218.398 56.2734 218.188 55.6797C217.984 55.0781 217.883 54.3555 217.883 53.5117V45.3203H221.258V53.5352C221.258 53.9102 221.301 54.2266 221.387 54.4844C221.48 54.7422 221.609 54.9531 221.773 55.1172C221.938 55.2812 222.129 55.3984 222.348 55.4688C222.574 55.5391 222.824 55.5742 223.098 55.5742C223.793 55.5742 224.34 55.4336 224.738 55.1523C225.145 54.8711 225.43 54.4883 225.594 54.0039C225.766 53.5117 225.852 52.9648 225.852 52.3633ZM238.273 55.1406V49.4922C238.273 49.0859 238.207 48.7383 238.074 48.4492C237.941 48.1523 237.734 47.9219 237.453 47.7578C237.18 47.5938 236.824 47.5117 236.387 47.5117C236.012 47.5117 235.688 47.5781 235.414 47.7109C235.141 47.8359 234.93 48.0195 234.781 48.2617C234.633 48.4961 234.559 48.7734 234.559 49.0938H231.184C231.184 48.5547 231.309 48.043 231.559 47.5586C231.809 47.0742 232.172 46.6484 232.648 46.2812C233.125 45.9062 233.691 45.6133 234.348 45.4023C235.012 45.1914 235.754 45.0859 236.574 45.0859C237.559 45.0859 238.434 45.25 239.199 45.5781C239.965 45.9062 240.566 46.3984 241.004 47.0547C241.449 47.7109 241.672 48.5312 241.672 49.5156V54.9414C241.672 55.6367 241.715 56.207 241.801 56.6523C241.887 57.0898 242.012 57.4727 242.176 57.8008V58H238.766C238.602 57.6562 238.477 57.2266 238.391 56.7109C238.312 56.1875 238.273 55.6641 238.273 55.1406ZM238.719 50.2773L238.742 52.1875H236.855C236.41 52.1875 236.023 52.2383 235.695 52.3398C235.367 52.4414 235.098 52.5859 234.887 52.7734C234.676 52.9531 234.52 53.1641 234.418 53.4062C234.324 53.6484 234.277 53.9141 234.277 54.2031C234.277 54.4922 234.344 54.7539 234.477 54.9883C234.609 55.2148 234.801 55.3945 235.051 55.5273C235.301 55.6523 235.594 55.7148 235.93 55.7148C236.438 55.7148 236.879 55.6133 237.254 55.4102C237.629 55.207 237.918 54.957 238.121 54.6602C238.332 54.3633 238.441 54.082 238.449 53.8164L239.34 55.2461C239.215 55.5664 239.043 55.8984 238.824 56.2422C238.613 56.5859 238.344 56.9102 238.016 57.2148C237.688 57.5117 237.293 57.7578 236.832 57.9531C236.371 58.1406 235.824 58.2344 235.191 58.2344C234.387 58.2344 233.656 58.0742 233 57.7539C232.352 57.4258 231.836 56.9766 231.453 56.4062C231.078 55.8281 230.891 55.1719 230.891 54.4375C230.891 53.7734 231.016 53.1836 231.266 52.668C231.516 52.1523 231.883 51.7188 232.367 51.3672C232.859 51.0078 233.473 50.7383 234.207 50.5586C234.941 50.3711 235.793 50.2773 236.762 50.2773H238.719ZM247.836 40V58H244.449V40H247.836ZM260.727 52.3398H264.23C264.16 53.4883 263.844 54.5078 263.281 55.3984C262.727 56.2891 261.949 56.9844 260.949 57.4844C259.957 57.9844 258.762 58.2344 257.363 58.2344C256.27 58.2344 255.289 58.0469 254.422 57.6719C253.555 57.2891 252.812 56.7422 252.195 56.0312C251.586 55.3203 251.121 54.4609 250.801 53.4531C250.48 52.4453 250.32 51.3164 250.32 50.0664V48.8828C250.32 47.6328 250.484 46.5039 250.812 45.4961C251.148 44.4805 251.625 43.6172 252.242 42.9062C252.867 42.1953 253.613 41.6484 254.48 41.2656C255.348 40.8828 256.316 40.6914 257.387 40.6914C258.809 40.6914 260.008 40.9492 260.984 41.4648C261.969 41.9805 262.73 42.6914 263.27 43.5977C263.816 44.5039 264.145 45.5352 264.254 46.6914H260.738C260.699 46.0039 260.562 45.4219 260.328 44.9453C260.094 44.4609 259.738 44.0977 259.262 43.8555C258.793 43.6055 258.168 43.4805 257.387 43.4805C256.801 43.4805 256.289 43.5898 255.852 43.8086C255.414 44.0273 255.047 44.3594 254.75 44.8047C254.453 45.25 254.23 45.8125 254.082 46.4922C253.941 47.1641 253.871 47.9531 253.871 48.8594V50.0664C253.871 50.9492 253.938 51.7266 254.07 52.3984C254.203 53.0625 254.406 53.625 254.68 54.0859C254.961 54.5391 255.32 54.8828 255.758 55.1172C256.203 55.3438 256.738 55.457 257.363 55.457C258.098 55.457 258.703 55.3398 259.18 55.1055C259.656 54.8711 260.02 54.5234 260.27 54.0625C260.527 53.6016 260.68 53.0273 260.727 52.3398ZM273.172 55.1406V49.4922C273.172 49.0859 273.105 48.7383 272.973 48.4492C272.84 48.1523 272.633 47.9219 272.352 47.7578C272.078 47.5938 271.723 47.5117 271.285 47.5117C270.91 47.5117 270.586 47.5781 270.312 47.7109C270.039 47.8359 269.828 48.0195 269.68 48.2617C269.531 48.4961 269.457 48.7734 269.457 49.0938H266.082C266.082 48.5547 266.207 48.043 266.457 47.5586C266.707 47.0742 267.07 46.6484 267.547 46.2812C268.023 45.9062 268.59 45.6133 269.246 45.4023C269.91 45.1914 270.652 45.0859 271.473 45.0859C272.457 45.0859 273.332 45.25 274.098 45.5781C274.863 45.9062 275.465 46.3984 275.902 47.0547C276.348 47.7109 276.57 48.5312 276.57 49.5156V54.9414C276.57 55.6367 276.613 56.207 276.699 56.6523C276.785 57.0898 276.91 57.4727 277.074 57.8008V58H273.664C273.5 57.6562 273.375 57.2266 273.289 56.7109C273.211 56.1875 273.172 55.6641 273.172 55.1406ZM273.617 50.2773L273.641 52.1875H271.754C271.309 52.1875 270.922 52.2383 270.594 52.3398C270.266 52.4414 269.996 52.5859 269.785 52.7734C269.574 52.9531 269.418 53.1641 269.316 53.4062C269.223 53.6484 269.176 53.9141 269.176 54.2031C269.176 54.4922 269.242 54.7539 269.375 54.9883C269.508 55.2148 269.699 55.3945 269.949 55.5273C270.199 55.6523 270.492 55.7148 270.828 55.7148C271.336 55.7148 271.777 55.6133 272.152 55.4102C272.527 55.207 272.816 54.957 273.02 54.6602C273.23 54.3633 273.34 54.082 273.348 53.8164L274.238 55.2461C274.113 55.5664 273.941 55.8984 273.723 56.2422C273.512 56.5859 273.242 56.9102 272.914 57.2148C272.586 57.5117 272.191 57.7578 271.73 57.9531C271.27 58.1406 270.723 58.2344 270.09 58.2344C269.285 58.2344 268.555 58.0742 267.898 57.7539C267.25 57.4258 266.734 56.9766 266.352 56.4062C265.977 55.8281 265.789 55.1719 265.789 54.4375C265.789 53.7734 265.914 53.1836 266.164 52.668C266.414 52.1523 266.781 51.7188 267.266 51.3672C267.758 51.0078 268.371 50.7383 269.105 50.5586C269.84 50.3711 270.691 50.2773 271.66 50.2773H273.617ZM282.547 47.9453V58H279.16V45.3203H282.336L282.547 47.9453ZM282.078 51.2148H281.141C281.141 50.332 281.246 49.5195 281.457 48.7773C281.676 48.0273 281.992 47.3789 282.406 46.832C282.828 46.2773 283.348 45.8477 283.965 45.543C284.582 45.2383 285.297 45.0859 286.109 45.0859C286.672 45.0859 287.188 45.1719 287.656 45.3438C288.125 45.5078 288.527 45.7695 288.863 46.1289C289.207 46.4805 289.473 46.9414 289.66 47.5117C289.848 48.0742 289.941 48.75 289.941 49.5391V58H286.566V49.9141C286.566 49.3359 286.488 48.8906 286.332 48.5781C286.176 48.2656 285.953 48.0469 285.664 47.9219C285.383 47.7969 285.043 47.7344 284.645 47.7344C284.207 47.7344 283.824 47.8242 283.496 48.0039C283.176 48.1836 282.91 48.4336 282.699 48.7539C282.488 49.0664 282.332 49.4336 282.23 49.8555C282.129 50.2773 282.078 50.7305 282.078 51.2148ZM289.625 50.8281L288.418 50.9805C288.418 50.1523 288.52 49.3828 288.723 48.6719C288.934 47.9609 289.242 47.3359 289.648 46.7969C290.062 46.2578 290.574 45.8398 291.184 45.543C291.793 45.2383 292.496 45.0859 293.293 45.0859C293.902 45.0859 294.457 45.1758 294.957 45.3555C295.457 45.5273 295.883 45.8047 296.234 46.1875C296.594 46.5625 296.867 47.0547 297.055 47.6641C297.25 48.2734 297.348 49.0195 297.348 49.9023V58H293.961V49.9023C293.961 49.3164 293.883 48.8711 293.727 48.5664C293.578 48.2539 293.359 48.0391 293.07 47.9219C292.789 47.7969 292.453 47.7344 292.062 47.7344C291.656 47.7344 291.301 47.8164 290.996 47.9805C290.691 48.1367 290.438 48.3555 290.234 48.6367C290.031 48.918 289.879 49.2461 289.777 49.6211C289.676 49.9883 289.625 50.3906 289.625 50.8281ZM303.336 47.7578V62.875H299.961V45.3203H303.09L303.336 47.7578ZM311.363 51.5195V51.7656C311.363 52.6875 311.254 53.543 311.035 54.332C310.824 55.1211 310.512 55.8086 310.098 56.3945C309.684 56.9727 309.168 57.4258 308.551 57.7539C307.941 58.0742 307.238 58.2344 306.441 58.2344C305.668 58.2344 304.996 58.0781 304.426 57.7656C303.855 57.4531 303.375 57.0156 302.984 56.4531C302.602 55.8828 302.293 55.2227 302.059 54.4727C301.824 53.7227 301.645 52.918 301.52 52.0586V51.4141C301.645 50.4922 301.824 49.6484 302.059 48.8828C302.293 48.1094 302.602 47.4414 302.984 46.8789C303.375 46.3086 303.852 45.8672 304.414 45.5547C304.984 45.2422 305.652 45.0859 306.418 45.0859C307.223 45.0859 307.93 45.2383 308.539 45.543C309.156 45.8477 309.672 46.2852 310.086 46.8555C310.508 47.4258 310.824 48.1055 311.035 48.8945C311.254 49.6836 311.363 50.5586 311.363 51.5195ZM307.977 51.7656V51.5195C307.977 50.9805 307.93 50.4844 307.836 50.0312C307.75 49.5703 307.609 49.168 307.414 48.8242C307.227 48.4805 306.977 48.2148 306.664 48.0273C306.359 47.832 305.988 47.7344 305.551 47.7344C305.09 47.7344 304.695 47.8086 304.367 47.957C304.047 48.1055 303.785 48.3203 303.582 48.6016C303.379 48.8828 303.227 49.2188 303.125 49.6094C303.023 50 302.961 50.4414 302.938 50.9336V52.5625C302.977 53.1406 303.086 53.6602 303.266 54.1211C303.445 54.5742 303.723 54.9336 304.098 55.1992C304.473 55.4648 304.965 55.5977 305.574 55.5977C306.02 55.5977 306.395 55.5 306.699 55.3047C307.004 55.1016 307.25 54.8242 307.438 54.4727C307.633 54.1211 307.77 53.7148 307.848 53.2539C307.934 52.793 307.977 52.2969 307.977 51.7656ZM320.961 54.9648V45.3203H324.336V58H321.16L320.961 54.9648ZM321.336 52.3633L322.332 52.3398C322.332 53.1836 322.234 53.9688 322.039 54.6953C321.844 55.4141 321.551 56.0391 321.16 56.5703C320.77 57.0938 320.277 57.5039 319.684 57.8008C319.09 58.0898 318.391 58.2344 317.586 58.2344C316.969 58.2344 316.398 58.1484 315.875 57.9766C315.359 57.7969 314.914 57.5195 314.539 57.1445C314.172 56.7617 313.883 56.2734 313.672 55.6797C313.469 55.0781 313.367 54.3555 313.367 53.5117V45.3203H316.742V53.5352C316.742 53.9102 316.785 54.2266 316.871 54.4844C316.965 54.7422 317.094 54.9531 317.258 55.1172C317.422 55.2812 317.613 55.3984 317.832 55.4688C318.059 55.5391 318.309 55.5742 318.582 55.5742C319.277 55.5742 319.824 55.4336 320.223 55.1523C320.629 54.8711 320.914 54.4883 321.078 54.0039C321.25 53.5117 321.336 52.9648 321.336 52.3633ZM333.77 54.4961C333.77 54.2539 333.699 54.0352 333.559 53.8398C333.418 53.6445 333.156 53.4648 332.773 53.3008C332.398 53.1289 331.855 52.9727 331.145 52.832C330.504 52.6914 329.906 52.5156 329.352 52.3047C328.805 52.0859 328.328 51.8242 327.922 51.5195C327.523 51.2148 327.211 50.8555 326.984 50.4414C326.758 50.0195 326.645 49.5391 326.645 49C326.645 48.4688 326.758 47.9688 326.984 47.5C327.219 47.0312 327.551 46.6172 327.98 46.2578C328.418 45.8906 328.949 45.6055 329.574 45.4023C330.207 45.1914 330.918 45.0859 331.707 45.0859C332.809 45.0859 333.754 45.2617 334.543 45.6133C335.34 45.9648 335.949 46.4492 336.371 47.0664C336.801 47.6758 337.016 48.3711 337.016 49.1523H333.641C333.641 48.8242 333.57 48.5312 333.43 48.2734C333.297 48.0078 333.086 47.8008 332.797 47.6523C332.516 47.4961 332.148 47.418 331.695 47.418C331.32 47.418 330.996 47.4844 330.723 47.6172C330.449 47.7422 330.238 47.9141 330.09 48.1328C329.949 48.3438 329.879 48.5781 329.879 48.8359C329.879 49.0312 329.918 49.207 329.996 49.3633C330.082 49.5117 330.219 49.6484 330.406 49.7734C330.594 49.8984 330.836 50.0156 331.133 50.125C331.438 50.2266 331.812 50.3203 332.258 50.4062C333.172 50.5938 333.988 50.8398 334.707 51.1445C335.426 51.4414 335.996 51.8477 336.418 52.3633C336.84 52.8711 337.051 53.5391 337.051 54.3672C337.051 54.9297 336.926 55.4453 336.676 55.9141C336.426 56.3828 336.066 56.793 335.598 57.1445C335.129 57.4883 334.566 57.7578 333.91 57.9531C333.262 58.1406 332.531 58.2344 331.719 58.2344C330.539 58.2344 329.539 58.0234 328.719 57.6016C327.906 57.1797 327.289 56.6445 326.867 55.9961C326.453 55.3398 326.246 54.668 326.246 53.9805H329.445C329.461 54.4414 329.578 54.8125 329.797 55.0938C330.023 55.375 330.309 55.5781 330.652 55.7031C331.004 55.8281 331.383 55.8906 331.789 55.8906C332.227 55.8906 332.59 55.832 332.879 55.7148C333.168 55.5898 333.387 55.4258 333.535 55.2227C333.691 55.0117 333.77 54.7695 333.77 54.4961Z" fill="#888888"/>
<path d="M102.635 86.0078V118H94.9443V86.0078H102.635ZM115.181 99.2573V118H107.776V94.2256H114.72L115.181 99.2573ZM114.28 105.3L112.588 105.344C112.588 103.674 112.786 102.136 113.182 100.729C113.577 99.3232 114.163 98.1001 114.939 97.0601C115.716 96.02 116.668 95.2144 117.796 94.6431C118.938 94.0718 120.257 93.7861 121.751 93.7861C122.791 93.7861 123.736 93.9473 124.585 94.2695C125.435 94.5771 126.167 95.0679 126.783 95.7417C127.398 96.4009 127.867 97.2651 128.189 98.3345C128.526 99.3892 128.694 100.656 128.694 102.136V118H121.29V103.081C121.29 102.07 121.172 101.308 120.938 100.795C120.718 100.283 120.396 99.9385 119.971 99.7627C119.546 99.5869 119.026 99.499 118.411 99.499C117.767 99.499 117.188 99.6455 116.675 99.9385C116.163 100.231 115.723 100.642 115.357 101.169C115.005 101.682 114.734 102.29 114.544 102.993C114.368 103.696 114.28 104.465 114.28 105.3ZM127.859 105.3L125.794 105.344C125.794 103.674 125.977 102.136 126.343 100.729C126.724 99.3232 127.288 98.1001 128.035 97.0601C128.797 96.02 129.742 95.2144 130.87 94.6431C131.998 94.0718 133.309 93.7861 134.803 93.7861C135.887 93.7861 136.883 93.9473 137.791 94.2695C138.699 94.5918 139.483 95.1118 140.142 95.8296C140.801 96.5474 141.314 97.4995 141.68 98.686C142.046 99.8579 142.229 101.308 142.229 103.037V118H134.803V103.037C134.803 102.055 134.686 101.315 134.451 100.817C134.231 100.305 133.909 99.9604 133.484 99.7847C133.06 99.5942 132.554 99.499 131.968 99.499C131.265 99.499 130.657 99.6455 130.145 99.9385C129.632 100.231 129.2 100.642 128.848 101.169C128.511 101.682 128.262 102.29 128.101 102.993C127.94 103.696 127.859 104.465 127.859 105.3ZM153.941 98.7959V127.141H146.536V94.2256H153.436L153.941 98.7959ZM168.531 105.827V106.289C168.531 108.017 168.333 109.621 167.938 111.101C167.542 112.58 166.956 113.869 166.18 114.968C165.403 116.066 164.437 116.923 163.279 117.539C162.137 118.139 160.811 118.439 159.302 118.439C157.881 118.439 156.658 118.125 155.633 117.495C154.607 116.865 153.75 115.993 153.062 114.88C152.374 113.767 151.817 112.492 151.392 111.057C150.967 109.621 150.63 108.105 150.381 106.508V105.915C150.63 104.201 150.967 102.612 151.392 101.147C151.817 99.6675 152.374 98.3784 153.062 97.2798C153.75 96.1812 154.6 95.3242 155.611 94.709C156.636 94.0938 157.859 93.7861 159.28 93.7861C160.789 93.7861 162.115 94.0718 163.257 94.6431C164.415 95.2144 165.381 96.0347 166.158 97.104C166.949 98.1587 167.542 99.4258 167.938 100.905C168.333 102.385 168.531 104.025 168.531 105.827ZM161.126 106.289V105.827C161.126 104.904 161.06 104.062 160.928 103.3C160.796 102.524 160.584 101.85 160.291 101.279C160.013 100.708 159.639 100.268 159.17 99.9604C158.702 99.6528 158.123 99.499 157.435 99.499C156.644 99.499 155.977 99.6235 155.435 99.8726C154.908 100.107 154.483 100.473 154.161 100.971C153.853 101.455 153.633 102.062 153.501 102.795C153.384 103.513 153.333 104.355 153.348 105.322V107.124C153.318 108.237 153.428 109.218 153.677 110.068C153.926 110.903 154.358 111.555 154.974 112.023C155.589 112.492 156.424 112.727 157.479 112.727C158.182 112.727 158.768 112.565 159.236 112.243C159.705 111.906 160.079 111.445 160.357 110.859C160.635 110.258 160.833 109.57 160.95 108.793C161.067 108.017 161.126 107.182 161.126 106.289ZM179.649 84.25V118H172.222V84.25H179.649ZM195.733 118.439C193.799 118.439 192.071 118.139 190.547 117.539C189.024 116.923 187.735 116.081 186.68 115.012C185.64 113.942 184.842 112.712 184.285 111.32C183.743 109.929 183.472 108.457 183.472 106.904V106.069C183.472 104.326 183.714 102.714 184.197 101.235C184.681 99.7407 185.398 98.437 186.351 97.3237C187.303 96.2104 188.497 95.3462 189.932 94.731C191.368 94.1011 193.038 93.7861 194.942 93.7861C196.626 93.7861 198.135 94.0571 199.468 94.5991C200.801 95.1411 201.929 95.9175 202.852 96.9282C203.79 97.939 204.5 99.1621 204.983 100.598C205.481 102.033 205.73 103.645 205.73 105.432V108.442H186.307V103.806H198.501V103.234C198.516 102.443 198.377 101.77 198.084 101.213C197.806 100.656 197.396 100.231 196.854 99.9385C196.312 99.6455 195.652 99.499 194.876 99.499C194.07 99.499 193.404 99.6748 192.876 100.026C192.364 100.378 191.961 100.861 191.668 101.477C191.39 102.077 191.192 102.773 191.075 103.564C190.958 104.355 190.899 105.19 190.899 106.069V106.904C190.899 107.783 191.016 108.581 191.25 109.299C191.5 110.017 191.851 110.632 192.305 111.145C192.774 111.643 193.331 112.031 193.975 112.309C194.634 112.587 195.381 112.727 196.216 112.727C197.227 112.727 198.223 112.536 199.205 112.155C200.186 111.774 201.028 111.145 201.731 110.266L205.093 114.265C204.61 114.953 203.921 115.62 203.028 116.264C202.149 116.909 201.094 117.436 199.864 117.846C198.633 118.242 197.256 118.439 195.733 118.439ZM216.211 99.2573V118H208.807V94.2256H215.75L216.211 99.2573ZM215.311 105.3L213.619 105.344C213.619 103.674 213.816 102.136 214.212 100.729C214.607 99.3232 215.193 98.1001 215.97 97.0601C216.746 96.02 217.698 95.2144 218.826 94.6431C219.969 94.0718 221.287 93.7861 222.781 93.7861C223.821 93.7861 224.766 93.9473 225.616 94.2695C226.465 94.5771 227.198 95.0679 227.813 95.7417C228.428 96.4009 228.897 97.2651 229.219 98.3345C229.556 99.3892 229.725 100.656 229.725 102.136V118H222.32V103.081C222.32 102.07 222.203 101.308 221.968 100.795C221.749 100.283 221.426 99.9385 221.001 99.7627C220.577 99.5869 220.057 99.499 219.441 99.499C218.797 99.499 218.218 99.6455 217.706 99.9385C217.193 100.231 216.753 100.642 216.387 101.169C216.036 101.682 215.765 102.29 215.574 102.993C215.398 103.696 215.311 104.465 215.311 105.3ZM228.89 105.3L226.824 105.344C226.824 103.674 227.007 102.136 227.374 100.729C227.754 99.3232 228.318 98.1001 229.065 97.0601C229.827 96.02 230.772 95.2144 231.9 94.6431C233.028 94.0718 234.339 93.7861 235.833 93.7861C236.917 93.7861 237.913 93.9473 238.821 94.2695C239.729 94.5918 240.513 95.1118 241.172 95.8296C241.832 96.5474 242.344 97.4995 242.71 98.686C243.077 99.8579 243.26 101.308 243.26 103.037V118H235.833V103.037C235.833 102.055 235.716 101.315 235.481 100.817C235.262 100.305 234.939 99.9604 234.515 99.7847C234.09 99.5942 233.584 99.499 232.999 99.499C232.295 99.499 231.688 99.6455 231.175 99.9385C230.662 100.231 230.23 100.642 229.878 101.169C229.542 101.682 229.292 102.29 229.131 102.993C228.97 103.696 228.89 104.465 228.89 105.3ZM259.014 118.439C257.081 118.439 255.352 118.139 253.829 117.539C252.305 116.923 251.016 116.081 249.961 115.012C248.921 113.942 248.123 112.712 247.566 111.32C247.024 109.929 246.753 108.457 246.753 106.904V106.069C246.753 104.326 246.995 102.714 247.479 101.235C247.962 99.7407 248.68 98.437 249.632 97.3237C250.584 96.2104 251.778 95.3462 253.213 94.731C254.649 94.1011 256.319 93.7861 258.223 93.7861C259.908 93.7861 261.417 94.0571 262.75 94.5991C264.083 95.1411 265.21 95.9175 266.133 96.9282C267.071 97.939 267.781 99.1621 268.265 100.598C268.763 102.033 269.012 103.645 269.012 105.432V108.442H249.588V103.806H261.783V103.234C261.797 102.443 261.658 101.77 261.365 101.213C261.087 100.656 260.677 100.231 260.135 99.9385C259.593 99.6455 258.934 99.499 258.157 99.499C257.352 99.499 256.685 99.6748 256.158 100.026C255.645 100.378 255.242 100.861 254.949 101.477C254.671 102.077 254.473 102.773 254.356 103.564C254.239 104.355 254.18 105.19 254.18 106.069V106.904C254.18 107.783 254.297 108.581 254.532 109.299C254.781 110.017 255.132 110.632 255.586 111.145C256.055 111.643 256.612 112.031 257.256 112.309C257.916 112.587 258.663 112.727 259.498 112.727C260.508 112.727 261.504 112.536 262.486 112.155C263.467 111.774 264.31 111.145 265.013 110.266L268.375 114.265C267.891 114.953 267.203 115.62 266.309 116.264C265.43 116.909 264.375 117.436 263.145 117.846C261.915 118.242 260.538 118.439 259.014 118.439ZM279.295 99.3013V118H271.89V94.2256H278.833L279.295 99.3013ZM278.416 105.3L276.68 105.344C276.68 103.527 276.9 101.909 277.339 100.488C277.779 99.0522 278.401 97.8364 279.207 96.8403C280.013 95.8442 280.972 95.0898 282.085 94.5771C283.213 94.0498 284.466 93.7861 285.843 93.7861C286.941 93.7861 287.945 93.9473 288.853 94.2695C289.776 94.5918 290.567 95.1118 291.226 95.8296C291.9 96.5474 292.413 97.4995 292.764 98.686C293.13 99.8579 293.313 101.308 293.313 103.037V118H285.865V103.015C285.865 102.062 285.733 101.337 285.469 100.839C285.206 100.327 284.825 99.9751 284.327 99.7847C283.829 99.5942 283.221 99.499 282.503 99.499C281.741 99.499 281.097 99.6455 280.569 99.9385C280.042 100.231 279.617 100.642 279.295 101.169C278.987 101.682 278.76 102.29 278.614 102.993C278.482 103.696 278.416 104.465 278.416 105.3ZM309.947 94.2256V99.3672H295.621V94.2256H309.947ZM298.631 88.3149H306.036V110.244C306.036 110.874 306.109 111.364 306.255 111.716C306.402 112.053 306.651 112.294 307.002 112.441C307.369 112.573 307.852 112.639 308.453 112.639C308.877 112.639 309.229 112.631 309.507 112.617C309.786 112.587 310.049 112.551 310.298 112.507V117.802C309.668 118.007 309.009 118.161 308.321 118.264C307.632 118.381 306.9 118.439 306.124 118.439C304.542 118.439 303.187 118.19 302.059 117.692C300.945 117.194 300.096 116.411 299.51 115.341C298.924 114.272 298.631 112.88 298.631 111.167V88.3149ZM325.24 112.023V102.224C325.24 101.55 325.145 100.971 324.954 100.488C324.764 100.004 324.463 99.6309 324.053 99.3672C323.643 99.0889 323.094 98.9497 322.405 98.9497C321.849 98.9497 321.373 99.0449 320.977 99.2354C320.582 99.4258 320.281 99.7114 320.076 100.092C319.871 100.473 319.769 100.957 319.769 101.542H312.364C312.364 100.444 312.605 99.4258 313.089 98.4883C313.587 97.5361 314.29 96.7085 315.198 96.0054C316.121 95.3022 317.22 94.7603 318.494 94.3794C319.783 93.9839 321.219 93.7861 322.801 93.7861C324.69 93.7861 326.375 94.1011 327.854 94.731C329.349 95.3608 330.528 96.3057 331.392 97.5654C332.256 98.8105 332.688 100.378 332.688 102.268V112.001C332.688 113.554 332.776 114.733 332.952 115.539C333.128 116.33 333.377 117.026 333.699 117.626V118H326.272C325.921 117.268 325.657 116.374 325.481 115.319C325.32 114.25 325.24 113.151 325.24 112.023ZM326.141 103.476L326.185 107.431H322.911C322.222 107.431 321.636 107.526 321.153 107.717C320.684 107.907 320.303 108.171 320.01 108.508C319.732 108.83 319.527 109.196 319.395 109.606C319.278 110.017 319.219 110.449 319.219 110.903C319.219 111.342 319.322 111.738 319.527 112.089C319.747 112.426 320.04 112.69 320.406 112.88C320.772 113.071 321.182 113.166 321.636 113.166C322.457 113.166 323.152 113.012 323.724 112.705C324.31 112.382 324.756 111.994 325.064 111.54C325.372 111.086 325.525 110.661 325.525 110.266L327.151 113.298C326.858 113.884 326.521 114.477 326.141 115.078C325.774 115.678 325.313 116.235 324.756 116.748C324.214 117.246 323.548 117.656 322.757 117.978C321.966 118.286 321.006 118.439 319.878 118.439C318.414 118.439 317.066 118.139 315.835 117.539C314.62 116.938 313.646 116.103 312.913 115.034C312.181 113.95 311.814 112.705 311.814 111.298C311.814 110.068 312.034 108.969 312.474 108.002C312.928 107.036 313.609 106.215 314.517 105.542C315.425 104.868 316.583 104.355 317.989 104.003C319.395 103.652 321.05 103.476 322.955 103.476H326.141ZM349.322 94.2256V99.3672H334.996V94.2256H349.322ZM338.006 88.3149H345.411V110.244C345.411 110.874 345.484 111.364 345.63 111.716C345.777 112.053 346.026 112.294 346.377 112.441C346.744 112.573 347.227 112.639 347.828 112.639C348.252 112.639 348.604 112.631 348.882 112.617C349.161 112.587 349.424 112.551 349.673 112.507V117.802C349.043 118.007 348.384 118.161 347.696 118.264C347.007 118.381 346.275 118.439 345.499 118.439C343.917 118.439 342.562 118.19 341.434 117.692C340.32 117.194 339.471 116.411 338.885 115.341C338.299 114.272 338.006 112.88 338.006 111.167V88.3149ZM360.088 94.2256V118H352.662V94.2256H360.088ZM352.222 88.0952C352.222 87.0405 352.603 86.1763 353.365 85.5024C354.126 84.8286 355.115 84.4917 356.331 84.4917C357.547 84.4917 358.536 84.8286 359.297 85.5024C360.059 86.1763 360.44 87.0405 360.44 88.0952C360.44 89.1499 360.059 90.0142 359.297 90.688C358.536 91.3618 357.547 91.6987 356.331 91.6987C355.115 91.6987 354.126 91.3618 353.365 90.688C352.603 90.0142 352.222 89.1499 352.222 88.0952ZM363.736 106.354V105.893C363.736 104.15 363.985 102.546 364.483 101.081C364.981 99.6016 365.713 98.3198 366.68 97.2358C367.647 96.1519 368.841 95.3096 370.262 94.709C371.683 94.0938 373.323 93.7861 375.184 93.7861C377.059 93.7861 378.707 94.0938 380.127 94.709C381.563 95.3096 382.764 96.1519 383.731 97.2358C384.698 98.3198 385.43 99.6016 385.928 101.081C386.426 102.546 386.675 104.15 386.675 105.893V106.354C386.675 108.083 386.426 109.687 385.928 111.167C385.43 112.631 384.698 113.913 383.731 115.012C382.764 116.096 381.57 116.938 380.149 117.539C378.729 118.139 377.088 118.439 375.228 118.439C373.367 118.439 371.719 118.139 370.284 117.539C368.848 116.938 367.647 116.096 366.68 115.012C365.713 113.913 364.981 112.631 364.483 111.167C363.985 109.687 363.736 108.083 363.736 106.354ZM371.141 105.893V106.354C371.141 107.248 371.207 108.083 371.338 108.859C371.47 109.636 371.69 110.317 371.998 110.903C372.305 111.474 372.723 111.921 373.25 112.243C373.777 112.565 374.437 112.727 375.228 112.727C376.004 112.727 376.648 112.565 377.161 112.243C377.688 111.921 378.106 111.474 378.414 110.903C378.721 110.317 378.941 109.636 379.073 108.859C379.205 108.083 379.271 107.248 379.271 106.354V105.893C379.271 105.029 379.205 104.216 379.073 103.454C378.941 102.678 378.721 101.997 378.414 101.411C378.106 100.81 377.688 100.341 377.161 100.004C376.634 99.6675 375.975 99.499 375.184 99.499C374.407 99.499 373.755 99.6675 373.228 100.004C372.715 100.341 372.305 100.81 371.998 101.411C371.69 101.997 371.47 102.678 371.338 103.454C371.207 104.216 371.141 105.029 371.141 105.893ZM397.244 99.3013V118H389.839V94.2256H396.783L397.244 99.3013ZM396.365 105.3L394.629 105.344C394.629 103.527 394.849 101.909 395.289 100.488C395.728 99.0522 396.351 97.8364 397.156 96.8403C397.962 95.8442 398.921 95.0898 400.035 94.5771C401.163 94.0498 402.415 93.7861 403.792 93.7861C404.891 93.7861 405.894 93.9473 406.802 94.2695C407.725 94.5918 408.516 95.1118 409.175 95.8296C409.849 96.5474 410.362 97.4995 410.713 98.686C411.08 99.8579 411.263 101.308 411.263 103.037V118H403.814V103.015C403.814 102.062 403.682 101.337 403.418 100.839C403.155 100.327 402.774 99.9751 402.276 99.7847C401.778 99.5942 401.17 99.499 400.452 99.499C399.69 99.499 399.046 99.6455 398.519 99.9385C397.991 100.231 397.566 100.642 397.244 101.169C396.937 101.682 396.709 102.29 396.563 102.993C396.431 103.696 396.365 104.465 396.365 105.3Z" fill="#163852"/>
<path d="M1363 15C1363 6.71573 1356.28 0 1348 0H1134V167H1348C1356.28 167 1363 160.284 1363 152V15Z" fill="#2596BE"/>
<path d="M1281.5 49H1216.5L1214 51.5V116.5L1216.5 119H1281.5L1284 116.5V51.5L1281.5 49ZM1279 114H1234V104H1245.5C1247 107 1250.5 109 1254 109C1259.5 109 1264 104.5 1264 99C1264 93.5 1259.5 89 1254 89C1248.5 89 1244 93.5 1244 99H1229V114H1219V54H1229V65.5C1226 67 1224 70.5 1224 74C1224 79.5 1228.5 84 1234 84C1239.5 84 1244 79.5 1244 74H1254C1254 79.5 1258.5 84 1264 84C1269.5 84 1274 79.5 1274 74C1274 68.5 1269.5 64 1264 64C1260.5 64 1257 66 1255.5 69H1242.5C1241 66 1237.5 64 1234 64V54H1279V114ZM1249 99C1249 96 1251 94 1254 94C1257 94 1259 96 1259 99C1259 102 1257 104 1254 104C1251 104 1249 102 1249 99ZM1234 69C1237 69 1239 71 1239 74C1239 77 1237 79 1234 79C1231 79 1229 77 1229 74C1229 71 1231 69 1234 69ZM1264 69C1267 69 1269 71 1269 74C1269 77 1267 79 1264 79C1261 79 1259 77 1259 74C1259 71 1261 69 1264 69Z" fill="white"/>
</svg>
