<svg width="1363" height="167" viewBox="0 0 1363 167" fill="none" xmlns="http://www.w3.org/2000/svg">
<rect width="1363" height="167" rx="15" fill="#F0F0F0"/>
<path d="M0 15C0 6.71573 6.71573 0 15 0H37V167H15C6.71573 167 0 160.284 0 152V15Z" fill="#AACEE8"/>
<path d="M100.906 50.9219L93.3945 48.2383V45.0859L103.602 49.375V51.6367L100.906 50.9219ZM93.3945 53.1719L100.918 50.4297L103.602 49.7852V52.0352L93.3945 56.3242V53.1719ZM118.836 43.8555L114.195 58H110.457L116.797 40.9375H119.176L118.836 43.8555ZM122.691 58L118.039 43.8555L117.664 40.9375H120.066L126.441 58H122.691ZM122.48 51.6484V54.4023H113.469V51.6484H122.48ZM137.234 40.9375H140.738V52.2109C140.738 53.5234 140.457 54.6289 139.895 55.5273C139.34 56.4258 138.57 57.1016 137.586 57.5547C136.609 58.0078 135.484 58.2344 134.211 58.2344C132.938 58.2344 131.805 58.0078 130.812 57.5547C129.828 57.1016 129.055 56.4258 128.492 55.5273C127.938 54.6289 127.66 53.5234 127.66 52.2109V40.9375H131.176V52.2109C131.176 52.9766 131.297 53.6016 131.539 54.0859C131.781 54.5703 132.129 54.9258 132.582 55.1523C133.043 55.3789 133.586 55.4922 134.211 55.4922C134.852 55.4922 135.395 55.3789 135.84 55.1523C136.293 54.9258 136.637 54.5703 136.871 54.0859C137.113 53.6016 137.234 52.9766 137.234 52.2109V40.9375ZM152.516 53.5352C152.516 53.2305 152.469 52.957 152.375 52.7148C152.289 52.4648 152.125 52.2383 151.883 52.0352C151.641 51.8242 151.301 51.6172 150.863 51.4141C150.426 51.2109 149.859 51 149.164 50.7812C148.391 50.5312 147.656 50.25 146.961 49.9375C146.273 49.625 145.664 49.2617 145.133 48.8477C144.609 48.4258 144.195 47.9375 143.891 47.3828C143.594 46.8281 143.445 46.1836 143.445 45.4492C143.445 44.7383 143.602 44.0938 143.914 43.5156C144.227 42.9297 144.664 42.4297 145.227 42.0156C145.789 41.5938 146.453 41.2695 147.219 41.043C147.992 40.8164 148.84 40.7031 149.762 40.7031C151.02 40.7031 152.117 40.9297 153.055 41.3828C153.992 41.8359 154.719 42.457 155.234 43.2461C155.758 44.0352 156.02 44.9375 156.02 45.9531H152.527C152.527 45.4531 152.422 45.0156 152.211 44.6406C152.008 44.2578 151.695 43.957 151.273 43.7383C150.859 43.5195 150.336 43.4102 149.703 43.4102C149.094 43.4102 148.586 43.5039 148.18 43.6914C147.773 43.8711 147.469 44.1172 147.266 44.4297C147.062 44.7344 146.961 45.0781 146.961 45.4609C146.961 45.75 147.031 46.0117 147.172 46.2461C147.32 46.4805 147.539 46.6992 147.828 46.9023C148.117 47.1055 148.473 47.2969 148.895 47.4766C149.316 47.6562 149.805 47.832 150.359 48.0039C151.289 48.2852 152.105 48.6016 152.809 48.9531C153.52 49.3047 154.113 49.6992 154.59 50.1367C155.066 50.5742 155.426 51.0703 155.668 51.625C155.91 52.1797 156.031 52.8086 156.031 53.5117C156.031 54.2539 155.887 54.918 155.598 55.5039C155.309 56.0898 154.891 56.5859 154.344 56.9922C153.797 57.3984 153.145 57.707 152.387 57.918C151.629 58.1289 150.781 58.2344 149.844 58.2344C149 58.2344 148.168 58.125 147.348 57.9062C146.527 57.6797 145.781 57.3398 145.109 56.8867C144.445 56.4336 143.914 55.8555 143.516 55.1523C143.117 54.4492 142.918 53.6172 142.918 52.6562H146.445C146.445 53.1875 146.527 53.6367 146.691 54.0039C146.855 54.3711 147.086 54.668 147.383 54.8945C147.688 55.1211 148.047 55.2852 148.461 55.3867C148.883 55.4883 149.344 55.5391 149.844 55.5391C150.453 55.5391 150.953 55.4531 151.344 55.2812C151.742 55.1094 152.035 54.8711 152.223 54.5664C152.418 54.2617 152.516 53.918 152.516 53.5352ZM166.051 40.9375V58H162.547V40.9375H166.051ZM171.301 40.9375V43.6914H157.379V40.9375H171.301ZM184.801 54.4375L188.82 40.9375H192.734L186.793 58H184.215L184.801 54.4375ZM181.098 40.9375L185.105 54.4375L185.715 58H183.113L177.207 40.9375H181.098ZM197.68 45.3203V58H194.293V45.3203H197.68ZM194.082 42.0156C194.082 41.5234 194.254 41.1172 194.598 40.7969C194.941 40.4766 195.402 40.3164 195.98 40.3164C196.551 40.3164 197.008 40.4766 197.352 40.7969C197.703 41.1172 197.879 41.5234 197.879 42.0156C197.879 42.5078 197.703 42.9141 197.352 43.2344C197.008 43.5547 196.551 43.7148 195.98 43.7148C195.402 43.7148 194.941 43.5547 194.598 43.2344C194.254 42.9141 194.082 42.5078 194.082 42.0156ZM203.844 48.0859V58H200.469V45.3203H203.645L203.844 48.0859ZM207.664 45.2383L207.605 48.3672C207.441 48.3438 207.242 48.3242 207.008 48.3086C206.781 48.2852 206.574 48.2734 206.387 48.2734C205.91 48.2734 205.496 48.3359 205.145 48.4609C204.801 48.5781 204.512 48.7539 204.277 48.9883C204.051 49.2227 203.879 49.5078 203.762 49.8438C203.652 50.1797 203.59 50.5625 203.574 50.9922L202.895 50.7812C202.895 49.9609 202.977 49.207 203.141 48.5195C203.305 47.8242 203.543 47.2188 203.855 46.7031C204.176 46.1875 204.566 45.7891 205.027 45.5078C205.488 45.2266 206.016 45.0859 206.609 45.0859C206.797 45.0859 206.988 45.1016 207.184 45.1328C207.379 45.1562 207.539 45.1914 207.664 45.2383ZM216.055 45.3203V47.7109H208.672V45.3203H216.055ZM210.5 42.1914H213.875V54.1797C213.875 54.5469 213.922 54.8281 214.016 55.0234C214.117 55.2188 214.266 55.3555 214.461 55.4336C214.656 55.5039 214.902 55.5391 215.199 55.5391C215.41 55.5391 215.598 55.5312 215.762 55.5156C215.934 55.4922 216.078 55.4688 216.195 55.4453L216.207 57.9297C215.918 58.0234 215.605 58.0977 215.27 58.1523C214.934 58.207 214.562 58.2344 214.156 58.2344C213.414 58.2344 212.766 58.1133 212.211 57.8711C211.664 57.6211 211.242 57.2227 210.945 56.6758C210.648 56.1289 210.5 55.4102 210.5 54.5195V42.1914ZM225.477 54.9648V45.3203H228.852V58H225.676L225.477 54.9648ZM225.852 52.3633L226.848 52.3398C226.848 53.1836 226.75 53.9688 226.555 54.6953C226.359 55.4141 226.066 56.0391 225.676 56.5703C225.285 57.0938 224.793 57.5039 224.199 57.8008C223.605 58.0898 222.906 58.2344 222.102 58.2344C221.484 58.2344 220.914 58.1484 220.391 57.9766C219.875 57.7969 219.43 57.5195 219.055 57.1445C218.688 56.7617 218.398 56.2734 218.188 55.6797C217.984 55.0781 217.883 54.3555 217.883 53.5117V45.3203H221.258V53.5352C221.258 53.9102 221.301 54.2266 221.387 54.4844C221.48 54.7422 221.609 54.9531 221.773 55.1172C221.938 55.2812 222.129 55.3984 222.348 55.4688C222.574 55.5391 222.824 55.5742 223.098 55.5742C223.793 55.5742 224.34 55.4336 224.738 55.1523C225.145 54.8711 225.43 54.4883 225.594 54.0039C225.766 53.5117 225.852 52.9648 225.852 52.3633ZM238.273 55.1406V49.4922C238.273 49.0859 238.207 48.7383 238.074 48.4492C237.941 48.1523 237.734 47.9219 237.453 47.7578C237.18 47.5938 236.824 47.5117 236.387 47.5117C236.012 47.5117 235.688 47.5781 235.414 47.7109C235.141 47.8359 234.93 48.0195 234.781 48.2617C234.633 48.4961 234.559 48.7734 234.559 49.0938H231.184C231.184 48.5547 231.309 48.043 231.559 47.5586C231.809 47.0742 232.172 46.6484 232.648 46.2812C233.125 45.9062 233.691 45.6133 234.348 45.4023C235.012 45.1914 235.754 45.0859 236.574 45.0859C237.559 45.0859 238.434 45.25 239.199 45.5781C239.965 45.9062 240.566 46.3984 241.004 47.0547C241.449 47.7109 241.672 48.5312 241.672 49.5156V54.9414C241.672 55.6367 241.715 56.207 241.801 56.6523C241.887 57.0898 242.012 57.4727 242.176 57.8008V58H238.766C238.602 57.6562 238.477 57.2266 238.391 56.7109C238.312 56.1875 238.273 55.6641 238.273 55.1406ZM238.719 50.2773L238.742 52.1875H236.855C236.41 52.1875 236.023 52.2383 235.695 52.3398C235.367 52.4414 235.098 52.5859 234.887 52.7734C234.676 52.9531 234.52 53.1641 234.418 53.4062C234.324 53.6484 234.277 53.9141 234.277 54.2031C234.277 54.4922 234.344 54.7539 234.477 54.9883C234.609 55.2148 234.801 55.3945 235.051 55.5273C235.301 55.6523 235.594 55.7148 235.93 55.7148C236.438 55.7148 236.879 55.6133 237.254 55.4102C237.629 55.207 237.918 54.957 238.121 54.6602C238.332 54.3633 238.441 54.082 238.449 53.8164L239.34 55.2461C239.215 55.5664 239.043 55.8984 238.824 56.2422C238.613 56.5859 238.344 56.9102 238.016 57.2148C237.688 57.5117 237.293 57.7578 236.832 57.9531C236.371 58.1406 235.824 58.2344 235.191 58.2344C234.387 58.2344 233.656 58.0742 233 57.7539C232.352 57.4258 231.836 56.9766 231.453 56.4062C231.078 55.8281 230.891 55.1719 230.891 54.4375C230.891 53.7734 231.016 53.1836 231.266 52.668C231.516 52.1523 231.883 51.7188 232.367 51.3672C232.859 51.0078 233.473 50.7383 234.207 50.5586C234.941 50.3711 235.793 50.2773 236.762 50.2773H238.719ZM247.836 40V58H244.449V40H247.836ZM260.727 52.3398H264.23C264.16 53.4883 263.844 54.5078 263.281 55.3984C262.727 56.2891 261.949 56.9844 260.949 57.4844C259.957 57.9844 258.762 58.2344 257.363 58.2344C256.27 58.2344 255.289 58.0469 254.422 57.6719C253.555 57.2891 252.812 56.7422 252.195 56.0312C251.586 55.3203 251.121 54.4609 250.801 53.4531C250.48 52.4453 250.32 51.3164 250.32 50.0664V48.8828C250.32 47.6328 250.484 46.5039 250.812 45.4961C251.148 44.4805 251.625 43.6172 252.242 42.9062C252.867 42.1953 253.613 41.6484 254.48 41.2656C255.348 40.8828 256.316 40.6914 257.387 40.6914C258.809 40.6914 260.008 40.9492 260.984 41.4648C261.969 41.9805 262.73 42.6914 263.27 43.5977C263.816 44.5039 264.145 45.5352 264.254 46.6914H260.738C260.699 46.0039 260.562 45.4219 260.328 44.9453C260.094 44.4609 259.738 44.0977 259.262 43.8555C258.793 43.6055 258.168 43.4805 257.387 43.4805C256.801 43.4805 256.289 43.5898 255.852 43.8086C255.414 44.0273 255.047 44.3594 254.75 44.8047C254.453 45.25 254.23 45.8125 254.082 46.4922C253.941 47.1641 253.871 47.9531 253.871 48.8594V50.0664C253.871 50.9492 253.938 51.7266 254.07 52.3984C254.203 53.0625 254.406 53.625 254.68 54.0859C254.961 54.5391 255.32 54.8828 255.758 55.1172C256.203 55.3438 256.738 55.457 257.363 55.457C258.098 55.457 258.703 55.3398 259.18 55.1055C259.656 54.8711 260.02 54.5234 260.27 54.0625C260.527 53.6016 260.68 53.0273 260.727 52.3398ZM273.172 55.1406V49.4922C273.172 49.0859 273.105 48.7383 272.973 48.4492C272.84 48.1523 272.633 47.9219 272.352 47.7578C272.078 47.5938 271.723 47.5117 271.285 47.5117C270.91 47.5117 270.586 47.5781 270.312 47.7109C270.039 47.8359 269.828 48.0195 269.68 48.2617C269.531 48.4961 269.457 48.7734 269.457 49.0938H266.082C266.082 48.5547 266.207 48.043 266.457 47.5586C266.707 47.0742 267.07 46.6484 267.547 46.2812C268.023 45.9062 268.59 45.6133 269.246 45.4023C269.91 45.1914 270.652 45.0859 271.473 45.0859C272.457 45.0859 273.332 45.25 274.098 45.5781C274.863 45.9062 275.465 46.3984 275.902 47.0547C276.348 47.7109 276.57 48.5312 276.57 49.5156V54.9414C276.57 55.6367 276.613 56.207 276.699 56.6523C276.785 57.0898 276.91 57.4727 277.074 57.8008V58H273.664C273.5 57.6562 273.375 57.2266 273.289 56.7109C273.211 56.1875 273.172 55.6641 273.172 55.1406ZM273.617 50.2773L273.641 52.1875H271.754C271.309 52.1875 270.922 52.2383 270.594 52.3398C270.266 52.4414 269.996 52.5859 269.785 52.7734C269.574 52.9531 269.418 53.1641 269.316 53.4062C269.223 53.6484 269.176 53.9141 269.176 54.2031C269.176 54.4922 269.242 54.7539 269.375 54.9883C269.508 55.2148 269.699 55.3945 269.949 55.5273C270.199 55.6523 270.492 55.7148 270.828 55.7148C271.336 55.7148 271.777 55.6133 272.152 55.4102C272.527 55.207 272.816 54.957 273.02 54.6602C273.23 54.3633 273.34 54.082 273.348 53.8164L274.238 55.2461C274.113 55.5664 273.941 55.8984 273.723 56.2422C273.512 56.5859 273.242 56.9102 272.914 57.2148C272.586 57.5117 272.191 57.7578 271.73 57.9531C271.27 58.1406 270.723 58.2344 270.09 58.2344C269.285 58.2344 268.555 58.0742 267.898 57.7539C267.25 57.4258 266.734 56.9766 266.352 56.4062C265.977 55.8281 265.789 55.1719 265.789 54.4375C265.789 53.7734 265.914 53.1836 266.164 52.668C266.414 52.1523 266.781 51.7188 267.266 51.3672C267.758 51.0078 268.371 50.7383 269.105 50.5586C269.84 50.3711 270.691 50.2773 271.66 50.2773H273.617ZM282.547 47.9453V58H279.16V45.3203H282.336L282.547 47.9453ZM282.078 51.2148H281.141C281.141 50.332 281.246 49.5195 281.457 48.7773C281.676 48.0273 281.992 47.3789 282.406 46.832C282.828 46.2773 283.348 45.8477 283.965 45.543C284.582 45.2383 285.297 45.0859 286.109 45.0859C286.672 45.0859 287.188 45.1719 287.656 45.3438C288.125 45.5078 288.527 45.7695 288.863 46.1289C289.207 46.4805 289.473 46.9414 289.66 47.5117C289.848 48.0742 289.941 48.75 289.941 49.5391V58H286.566V49.9141C286.566 49.3359 286.488 48.8906 286.332 48.5781C286.176 48.2656 285.953 48.0469 285.664 47.9219C285.383 47.7969 285.043 47.7344 284.645 47.7344C284.207 47.7344 283.824 47.8242 283.496 48.0039C283.176 48.1836 282.91 48.4336 282.699 48.7539C282.488 49.0664 282.332 49.4336 282.23 49.8555C282.129 50.2773 282.078 50.7305 282.078 51.2148ZM289.625 50.8281L288.418 50.9805C288.418 50.1523 288.52 49.3828 288.723 48.6719C288.934 47.9609 289.242 47.3359 289.648 46.7969C290.062 46.2578 290.574 45.8398 291.184 45.543C291.793 45.2383 292.496 45.0859 293.293 45.0859C293.902 45.0859 294.457 45.1758 294.957 45.3555C295.457 45.5273 295.883 45.8047 296.234 46.1875C296.594 46.5625 296.867 47.0547 297.055 47.6641C297.25 48.2734 297.348 49.0195 297.348 49.9023V58H293.961V49.9023C293.961 49.3164 293.883 48.8711 293.727 48.5664C293.578 48.2539 293.359 48.0391 293.07 47.9219C292.789 47.7969 292.453 47.7344 292.062 47.7344C291.656 47.7344 291.301 47.8164 290.996 47.9805C290.691 48.1367 290.438 48.3555 290.234 48.6367C290.031 48.918 289.879 49.2461 289.777 49.6211C289.676 49.9883 289.625 50.3906 289.625 50.8281ZM303.336 47.7578V62.875H299.961V45.3203H303.09L303.336 47.7578ZM311.363 51.5195V51.7656C311.363 52.6875 311.254 53.543 311.035 54.332C310.824 55.1211 310.512 55.8086 310.098 56.3945C309.684 56.9727 309.168 57.4258 308.551 57.7539C307.941 58.0742 307.238 58.2344 306.441 58.2344C305.668 58.2344 304.996 58.0781 304.426 57.7656C303.855 57.4531 303.375 57.0156 302.984 56.4531C302.602 55.8828 302.293 55.2227 302.059 54.4727C301.824 53.7227 301.645 52.918 301.52 52.0586V51.4141C301.645 50.4922 301.824 49.6484 302.059 48.8828C302.293 48.1094 302.602 47.4414 302.984 46.8789C303.375 46.3086 303.852 45.8672 304.414 45.5547C304.984 45.2422 305.652 45.0859 306.418 45.0859C307.223 45.0859 307.93 45.2383 308.539 45.543C309.156 45.8477 309.672 46.2852 310.086 46.8555C310.508 47.4258 310.824 48.1055 311.035 48.8945C311.254 49.6836 311.363 50.5586 311.363 51.5195ZM307.977 51.7656V51.5195C307.977 50.9805 307.93 50.4844 307.836 50.0312C307.75 49.5703 307.609 49.168 307.414 48.8242C307.227 48.4805 306.977 48.2148 306.664 48.0273C306.359 47.832 305.988 47.7344 305.551 47.7344C305.09 47.7344 304.695 47.8086 304.367 47.957C304.047 48.1055 303.785 48.3203 303.582 48.6016C303.379 48.8828 303.227 49.2188 303.125 49.6094C303.023 50 302.961 50.4414 302.938 50.9336V52.5625C302.977 53.1406 303.086 53.6602 303.266 54.1211C303.445 54.5742 303.723 54.9336 304.098 55.1992C304.473 55.4648 304.965 55.5977 305.574 55.5977C306.02 55.5977 306.395 55.5 306.699 55.3047C307.004 55.1016 307.25 54.8242 307.438 54.4727C307.633 54.1211 307.77 53.7148 307.848 53.2539C307.934 52.793 307.977 52.2969 307.977 51.7656ZM320.961 54.9648V45.3203H324.336V58H321.16L320.961 54.9648ZM321.336 52.3633L322.332 52.3398C322.332 53.1836 322.234 53.9688 322.039 54.6953C321.844 55.4141 321.551 56.0391 321.16 56.5703C320.77 57.0938 320.277 57.5039 319.684 57.8008C319.09 58.0898 318.391 58.2344 317.586 58.2344C316.969 58.2344 316.398 58.1484 315.875 57.9766C315.359 57.7969 314.914 57.5195 314.539 57.1445C314.172 56.7617 313.883 56.2734 313.672 55.6797C313.469 55.0781 313.367 54.3555 313.367 53.5117V45.3203H316.742V53.5352C316.742 53.9102 316.785 54.2266 316.871 54.4844C316.965 54.7422 317.094 54.9531 317.258 55.1172C317.422 55.2812 317.613 55.3984 317.832 55.4688C318.059 55.5391 318.309 55.5742 318.582 55.5742C319.277 55.5742 319.824 55.4336 320.223 55.1523C320.629 54.8711 320.914 54.4883 321.078 54.0039C321.25 53.5117 321.336 52.9648 321.336 52.3633ZM333.77 54.4961C333.77 54.2539 333.699 54.0352 333.559 53.8398C333.418 53.6445 333.156 53.4648 332.773 53.3008C332.398 53.1289 331.855 52.9727 331.145 52.832C330.504 52.6914 329.906 52.5156 329.352 52.3047C328.805 52.0859 328.328 51.8242 327.922 51.5195C327.523 51.2148 327.211 50.8555 326.984 50.4414C326.758 50.0195 326.645 49.5391 326.645 49C326.645 48.4688 326.758 47.9688 326.984 47.5C327.219 47.0312 327.551 46.6172 327.98 46.2578C328.418 45.8906 328.949 45.6055 329.574 45.4023C330.207 45.1914 330.918 45.0859 331.707 45.0859C332.809 45.0859 333.754 45.2617 334.543 45.6133C335.34 45.9648 335.949 46.4492 336.371 47.0664C336.801 47.6758 337.016 48.3711 337.016 49.1523H333.641C333.641 48.8242 333.57 48.5312 333.43 48.2734C333.297 48.0078 333.086 47.8008 332.797 47.6523C332.516 47.4961 332.148 47.418 331.695 47.418C331.32 47.418 330.996 47.4844 330.723 47.6172C330.449 47.7422 330.238 47.9141 330.09 48.1328C329.949 48.3438 329.879 48.5781 329.879 48.8359C329.879 49.0312 329.918 49.207 329.996 49.3633C330.082 49.5117 330.219 49.6484 330.406 49.7734C330.594 49.8984 330.836 50.0156 331.133 50.125C331.438 50.2266 331.812 50.3203 332.258 50.4062C333.172 50.5938 333.988 50.8398 334.707 51.1445C335.426 51.4414 335.996 51.8477 336.418 52.3633C336.84 52.8711 337.051 53.5391 337.051 54.3672C337.051 54.9297 336.926 55.4453 336.676 55.9141C336.426 56.3828 336.066 56.793 335.598 57.1445C335.129 57.4883 334.566 57.7578 333.91 57.9531C333.262 58.1406 332.531 58.2344 331.719 58.2344C330.539 58.2344 329.539 58.0234 328.719 57.6016C327.906 57.1797 327.289 56.6445 326.867 55.9961C326.453 55.3398 326.246 54.668 326.246 53.9805H329.445C329.461 54.4414 329.578 54.8125 329.797 55.0938C330.023 55.375 330.309 55.5781 330.652 55.7031C331.004 55.8281 331.383 55.8906 331.789 55.8906C332.227 55.8906 332.59 55.832 332.879 55.7148C333.168 55.5898 333.387 55.4258 333.535 55.2227C333.691 55.0117 333.77 54.7695 333.77 54.4961Z" fill="#888888"/>
<path d="M107.205 107.146H99.251V101.191H107.205C108.289 101.191 109.168 101.008 109.842 100.642C110.516 100.275 111.006 99.77 111.314 99.1255C111.636 98.4663 111.797 97.7266 111.797 96.9062C111.797 96.0273 111.636 95.2144 111.314 94.4673C111.006 93.7202 110.516 93.1196 109.842 92.6655C109.168 92.1968 108.289 91.9624 107.205 91.9624H102.151V118H94.439V86.0078H107.205C109.769 86.0078 111.973 86.4766 113.819 87.4141C115.679 88.3516 117.107 89.6406 118.104 91.2812C119.1 92.9072 119.598 94.7676 119.598 96.8623C119.598 98.9277 119.1 100.729 118.104 102.268C117.107 103.806 115.679 105.007 113.819 105.871C111.973 106.721 109.769 107.146 107.205 107.146ZM130.87 100.114V118H123.465V94.2256H130.386L130.87 100.114ZM137.901 94.0498L137.769 100.927C137.476 100.898 137.081 100.861 136.583 100.817C136.084 100.773 135.667 100.751 135.33 100.751C134.466 100.751 133.719 100.854 133.089 101.059C132.474 101.25 131.961 101.542 131.551 101.938C131.155 102.319 130.862 102.802 130.672 103.388C130.496 103.974 130.416 104.655 130.43 105.432L129.09 104.553C129.09 102.956 129.244 101.506 129.551 100.202C129.874 98.8838 130.328 97.7485 130.914 96.7964C131.5 95.8296 132.21 95.0898 133.045 94.5771C133.88 94.0498 134.817 93.7861 135.857 93.7861C136.224 93.7861 136.583 93.8081 136.934 93.8521C137.3 93.896 137.623 93.9619 137.901 94.0498ZM138.736 106.354V105.893C138.736 104.15 138.985 102.546 139.483 101.081C139.981 99.6016 140.713 98.3198 141.68 97.2358C142.647 96.1519 143.841 95.3096 145.262 94.709C146.683 94.0938 148.323 93.7861 150.184 93.7861C152.059 93.7861 153.707 94.0938 155.127 94.709C156.563 95.3096 157.764 96.1519 158.731 97.2358C159.698 98.3198 160.43 99.6016 160.928 101.081C161.426 102.546 161.675 104.15 161.675 105.893V106.354C161.675 108.083 161.426 109.687 160.928 111.167C160.43 112.631 159.698 113.913 158.731 115.012C157.764 116.096 156.57 116.938 155.149 117.539C153.729 118.139 152.088 118.439 150.228 118.439C148.367 118.439 146.719 118.139 145.284 117.539C143.848 116.938 142.647 116.096 141.68 115.012C140.713 113.913 139.981 112.631 139.483 111.167C138.985 109.687 138.736 108.083 138.736 106.354ZM146.141 105.893V106.354C146.141 107.248 146.207 108.083 146.338 108.859C146.47 109.636 146.69 110.317 146.998 110.903C147.305 111.474 147.723 111.921 148.25 112.243C148.777 112.565 149.437 112.727 150.228 112.727C151.004 112.727 151.648 112.565 152.161 112.243C152.688 111.921 153.106 111.474 153.414 110.903C153.721 110.317 153.941 109.636 154.073 108.859C154.205 108.083 154.271 107.248 154.271 106.354V105.893C154.271 105.029 154.205 104.216 154.073 103.454C153.941 102.678 153.721 101.997 153.414 101.411C153.106 100.81 152.688 100.341 152.161 100.004C151.634 99.6675 150.975 99.499 150.184 99.499C149.407 99.499 148.755 99.6675 148.228 100.004C147.715 100.341 147.305 100.81 146.998 101.411C146.69 101.997 146.47 102.678 146.338 103.454C146.207 104.216 146.141 105.029 146.141 105.893ZM165.521 94.2256H172.947V118.769C172.947 120.673 172.581 122.277 171.849 123.581C171.116 124.899 170.069 125.896 168.707 126.569C167.344 127.258 165.718 127.602 163.829 127.602C163.199 127.602 162.62 127.573 162.093 127.514C161.551 127.47 160.958 127.375 160.313 127.229V121.625C160.694 121.684 161.045 121.728 161.368 121.757C161.69 121.801 162.042 121.823 162.422 121.823C163.096 121.823 163.66 121.713 164.114 121.494C164.568 121.274 164.913 120.937 165.147 120.483C165.396 120.029 165.521 119.458 165.521 118.769V94.2256ZM164.971 88.0952C164.971 87.0405 165.352 86.1763 166.114 85.5024C166.875 84.8286 167.864 84.4917 169.08 84.4917C170.296 84.4917 171.285 84.8286 172.046 85.5024C172.808 86.1763 173.189 87.0405 173.189 88.0952C173.189 89.1499 172.808 90.0142 172.046 90.688C171.285 91.3618 170.296 91.6987 169.08 91.6987C167.864 91.6987 166.875 91.3618 166.114 90.688C165.352 90.0142 164.971 89.1499 164.971 88.0952ZM188.658 118.439C186.724 118.439 184.996 118.139 183.472 117.539C181.949 116.923 180.66 116.081 179.605 115.012C178.565 113.942 177.767 112.712 177.21 111.32C176.668 109.929 176.397 108.457 176.397 106.904V106.069C176.397 104.326 176.639 102.714 177.122 101.235C177.605 99.7407 178.323 98.437 179.275 97.3237C180.228 96.2104 181.421 95.3462 182.857 94.731C184.292 94.1011 185.962 93.7861 187.867 93.7861C189.551 93.7861 191.06 94.0571 192.393 94.5991C193.726 95.1411 194.854 95.9175 195.777 96.9282C196.714 97.939 197.425 99.1621 197.908 100.598C198.406 102.033 198.655 103.645 198.655 105.432V108.442H179.231V103.806H191.426V103.234C191.441 102.443 191.302 101.77 191.009 101.213C190.73 100.656 190.32 100.231 189.778 99.9385C189.236 99.6455 188.577 99.499 187.801 99.499C186.995 99.499 186.329 99.6748 185.801 100.026C185.289 100.378 184.886 100.861 184.593 101.477C184.314 102.077 184.117 102.773 184 103.564C183.882 104.355 183.824 105.19 183.824 106.069V106.904C183.824 107.783 183.941 108.581 184.175 109.299C184.424 110.017 184.776 110.632 185.23 111.145C185.699 111.643 186.255 112.031 186.9 112.309C187.559 112.587 188.306 112.727 189.141 112.727C190.152 112.727 191.148 112.536 192.129 112.155C193.111 111.774 193.953 111.145 194.656 110.266L198.018 114.265C197.535 114.953 196.846 115.62 195.953 116.264C195.074 116.909 194.019 117.436 192.789 117.846C191.558 118.242 190.181 118.439 188.658 118.439ZM211.707 112.727C212.396 112.727 212.981 112.602 213.465 112.353C213.963 112.089 214.336 111.723 214.585 111.254C214.849 110.771 214.974 110.192 214.959 109.519H221.924C221.939 111.306 221.5 112.873 220.606 114.221C219.727 115.554 218.526 116.594 217.002 117.341C215.494 118.073 213.787 118.439 211.883 118.439C210.022 118.439 208.396 118.139 207.005 117.539C205.613 116.923 204.449 116.074 203.511 114.99C202.588 113.891 201.893 112.609 201.424 111.145C200.97 109.68 200.743 108.09 200.743 106.376V105.871C200.743 104.157 200.97 102.568 201.424 101.103C201.893 99.6235 202.588 98.3418 203.511 97.2578C204.449 96.1592 205.606 95.3096 206.983 94.709C208.375 94.0938 209.993 93.7861 211.839 93.7861C213.816 93.7861 215.56 94.1597 217.068 94.9067C218.592 95.6538 219.786 96.7378 220.65 98.1587C221.514 99.5796 221.939 101.301 221.924 103.322H214.959C214.974 102.604 214.864 101.96 214.629 101.389C214.395 100.817 214.029 100.363 213.531 100.026C213.047 99.6748 212.425 99.499 211.663 99.499C210.901 99.499 210.286 99.6675 209.817 100.004C209.349 100.341 208.99 100.81 208.741 101.411C208.506 101.997 208.345 102.67 208.257 103.432C208.184 104.194 208.147 105.007 208.147 105.871V106.376C208.147 107.255 208.184 108.083 208.257 108.859C208.345 109.621 208.514 110.295 208.763 110.881C209.012 111.452 209.371 111.906 209.839 112.243C210.308 112.565 210.931 112.727 211.707 112.727ZM237.613 94.2256V99.3672H223.287V94.2256H237.613ZM226.297 88.3149H233.702V110.244C233.702 110.874 233.775 111.364 233.921 111.716C234.068 112.053 234.317 112.294 234.668 112.441C235.035 112.573 235.518 112.639 236.119 112.639C236.543 112.639 236.895 112.631 237.173 112.617C237.452 112.587 237.715 112.551 237.964 112.507V117.802C237.334 118.007 236.675 118.161 235.987 118.264C235.298 118.381 234.566 118.439 233.79 118.439C232.208 118.439 230.853 118.19 229.725 117.692C228.611 117.194 227.762 116.411 227.176 115.341C226.59 114.272 226.297 112.88 226.297 111.167V88.3149ZM264.881 107.146H256.927V101.191H264.881C265.965 101.191 266.844 101.008 267.518 100.642C268.191 100.275 268.682 99.77 268.99 99.1255C269.312 98.4663 269.473 97.7266 269.473 96.9062C269.473 96.0273 269.312 95.2144 268.99 94.4673C268.682 93.7202 268.191 93.1196 267.518 92.6655C266.844 92.1968 265.965 91.9624 264.881 91.9624H259.827V118H252.115V86.0078H264.881C267.444 86.0078 269.649 86.4766 271.495 87.4141C273.355 88.3516 274.783 89.6406 275.779 91.2812C276.775 92.9072 277.273 94.7676 277.273 96.8623C277.273 98.9277 276.775 100.729 275.779 102.268C274.783 103.806 273.355 105.007 271.495 105.871C269.649 106.721 267.444 107.146 264.881 107.146ZM288.326 84.25V118H280.921V84.25H288.326ZM287.447 105.3L285.711 105.344C285.711 103.674 285.916 102.136 286.326 100.729C286.736 99.3232 287.322 98.1001 288.084 97.0601C288.846 96.02 289.761 95.2144 290.831 94.6431C291.9 94.0718 293.086 93.7861 294.39 93.7861C295.562 93.7861 296.631 93.9546 297.598 94.2915C298.58 94.6284 299.422 95.1704 300.125 95.9175C300.843 96.6646 301.392 97.6387 301.773 98.8398C302.168 100.041 302.366 101.506 302.366 103.234V118H294.917V103.19C294.917 102.224 294.778 101.477 294.5 100.949C294.236 100.407 293.855 100.034 293.357 99.8286C292.859 99.6089 292.251 99.499 291.534 99.499C290.669 99.499 289.966 99.6455 289.424 99.9385C288.882 100.231 288.465 100.642 288.172 101.169C287.894 101.682 287.703 102.29 287.601 102.993C287.498 103.696 287.447 104.465 287.447 105.3ZM314.297 94.2256V118H306.871V94.2256H314.297ZM306.431 88.0952C306.431 87.0405 306.812 86.1763 307.574 85.5024C308.335 84.8286 309.324 84.4917 310.54 84.4917C311.756 84.4917 312.745 84.8286 313.506 85.5024C314.268 86.1763 314.649 87.0405 314.649 88.0952C314.649 89.1499 314.268 90.0142 313.506 90.688C312.745 91.3618 311.756 91.6987 310.54 91.6987C309.324 91.6987 308.335 91.3618 307.574 90.688C306.812 90.0142 306.431 89.1499 306.431 88.0952ZM326.69 84.25V118H319.263V84.25H326.69ZM330.337 106.354V105.893C330.337 104.15 330.586 102.546 331.084 101.081C331.583 99.6016 332.315 98.3198 333.282 97.2358C334.249 96.1519 335.442 95.3096 336.863 94.709C338.284 94.0938 339.925 93.7861 341.785 93.7861C343.66 93.7861 345.308 94.0938 346.729 94.709C348.165 95.3096 349.366 96.1519 350.333 97.2358C351.299 98.3198 352.032 99.6016 352.53 101.081C353.028 102.546 353.277 104.15 353.277 105.893V106.354C353.277 108.083 353.028 109.687 352.53 111.167C352.032 112.631 351.299 113.913 350.333 115.012C349.366 116.096 348.172 116.938 346.751 117.539C345.33 118.139 343.689 118.439 341.829 118.439C339.969 118.439 338.321 118.139 336.885 117.539C335.45 116.938 334.249 116.096 333.282 115.012C332.315 113.913 331.583 112.631 331.084 111.167C330.586 109.687 330.337 108.083 330.337 106.354ZM337.742 105.893V106.354C337.742 107.248 337.808 108.083 337.94 108.859C338.072 109.636 338.292 110.317 338.599 110.903C338.907 111.474 339.324 111.921 339.852 112.243C340.379 112.565 341.038 112.727 341.829 112.727C342.605 112.727 343.25 112.565 343.763 112.243C344.29 111.921 344.708 111.474 345.015 110.903C345.323 110.317 345.542 109.636 345.674 108.859C345.806 108.083 345.872 107.248 345.872 106.354V105.893C345.872 105.029 345.806 104.216 345.674 103.454C345.542 102.678 345.323 101.997 345.015 101.411C344.708 100.81 344.29 100.341 343.763 100.004C343.235 99.6675 342.576 99.499 341.785 99.499C341.009 99.499 340.357 99.6675 339.83 100.004C339.317 100.341 338.907 100.81 338.599 101.411C338.292 101.997 338.072 102.678 337.94 103.454C337.808 104.216 337.742 105.029 337.742 105.893ZM369.031 111.32C369.031 110.91 368.892 110.559 368.614 110.266C368.35 109.958 367.881 109.68 367.208 109.431C366.534 109.167 365.589 108.903 364.373 108.64C363.216 108.391 362.125 108.061 361.099 107.651C360.088 107.241 359.202 106.743 358.44 106.157C357.679 105.571 357.078 104.875 356.639 104.069C356.214 103.264 356.001 102.341 356.001 101.301C356.001 100.29 356.214 99.3379 356.639 98.4443C357.078 97.5361 357.715 96.7378 358.55 96.0493C359.4 95.3462 360.433 94.7969 361.648 94.4014C362.864 93.9912 364.249 93.7861 365.801 93.7861C367.94 93.7861 369.786 94.1157 371.338 94.7749C372.891 95.4194 374.085 96.3276 374.92 97.4995C375.77 98.6567 376.194 99.9971 376.194 101.521H368.79C368.79 100.92 368.687 100.407 368.482 99.9824C368.292 99.5576 367.977 99.2354 367.537 99.0156C367.098 98.7812 366.512 98.6641 365.779 98.6641C365.267 98.6641 364.798 98.7593 364.373 98.9497C363.963 99.1401 363.633 99.4038 363.384 99.7407C363.135 100.078 363.011 100.473 363.011 100.927C363.011 101.25 363.084 101.542 363.23 101.806C363.392 102.055 363.633 102.29 363.956 102.509C364.278 102.714 364.688 102.905 365.186 103.081C365.684 103.242 366.285 103.388 366.988 103.52C368.584 103.813 370.079 104.23 371.47 104.772C372.862 105.314 373.99 106.083 374.854 107.08C375.733 108.076 376.172 109.416 376.172 111.101C376.172 112.155 375.931 113.129 375.447 114.023C374.964 114.902 374.268 115.678 373.36 116.352C372.452 117.011 371.36 117.524 370.086 117.89C368.812 118.256 367.376 118.439 365.779 118.439C363.509 118.439 361.59 118.037 360.022 117.231C358.455 116.411 357.269 115.385 356.463 114.155C355.672 112.91 355.276 111.65 355.276 110.375H362.176C362.205 111.108 362.381 111.708 362.703 112.177C363.04 112.646 363.487 112.99 364.043 113.21C364.6 113.43 365.245 113.54 365.977 113.54C366.651 113.54 367.208 113.444 367.647 113.254C368.101 113.063 368.445 112.807 368.68 112.485C368.914 112.148 369.031 111.76 369.031 111.32ZM378.721 106.354V105.893C378.721 104.15 378.97 102.546 379.468 101.081C379.966 99.6016 380.699 98.3198 381.666 97.2358C382.632 96.1519 383.826 95.3096 385.247 94.709C386.668 94.0938 388.309 93.7861 390.169 93.7861C392.044 93.7861 393.692 94.0938 395.113 94.709C396.548 95.3096 397.75 96.1519 398.716 97.2358C399.683 98.3198 400.416 99.6016 400.914 101.081C401.412 102.546 401.661 104.15 401.661 105.893V106.354C401.661 108.083 401.412 109.687 400.914 111.167C400.416 112.631 399.683 113.913 398.716 115.012C397.75 116.096 396.556 116.938 395.135 117.539C393.714 118.139 392.073 118.439 390.213 118.439C388.353 118.439 386.705 118.139 385.269 117.539C383.833 116.938 382.632 116.096 381.666 115.012C380.699 113.913 379.966 112.631 379.468 111.167C378.97 109.687 378.721 108.083 378.721 106.354ZM386.126 105.893V106.354C386.126 107.248 386.192 108.083 386.324 108.859C386.456 109.636 386.675 110.317 386.983 110.903C387.291 111.474 387.708 111.921 388.235 112.243C388.763 112.565 389.422 112.727 390.213 112.727C390.989 112.727 391.634 112.565 392.146 112.243C392.674 111.921 393.091 111.474 393.399 110.903C393.707 110.317 393.926 109.636 394.058 108.859C394.19 108.083 394.256 107.248 394.256 106.354V105.893C394.256 105.029 394.19 104.216 394.058 103.454C393.926 102.678 393.707 101.997 393.399 101.411C393.091 100.81 392.674 100.341 392.146 100.004C391.619 99.6675 390.96 99.499 390.169 99.499C389.393 99.499 388.741 99.6675 388.213 100.004C387.701 100.341 387.291 100.81 386.983 101.411C386.675 101.997 386.456 102.678 386.324 103.454C386.192 104.216 386.126 105.029 386.126 105.893ZM412.427 98.7959V127.141H405.022V94.2256H411.922L412.427 98.7959ZM427.017 105.827V106.289C427.017 108.017 426.819 109.621 426.424 111.101C426.028 112.58 425.442 113.869 424.666 114.968C423.89 116.066 422.923 116.923 421.766 117.539C420.623 118.139 419.297 118.439 417.789 118.439C416.368 118.439 415.145 118.125 414.119 117.495C413.094 116.865 412.237 115.993 411.548 114.88C410.86 113.767 410.303 112.492 409.878 111.057C409.454 109.621 409.117 108.105 408.868 106.508V105.915C409.117 104.201 409.454 102.612 409.878 101.147C410.303 99.6675 410.86 98.3784 411.548 97.2798C412.237 96.1812 413.086 95.3242 414.097 94.709C415.123 94.0938 416.346 93.7861 417.767 93.7861C419.275 93.7861 420.601 94.0718 421.744 94.6431C422.901 95.2144 423.868 96.0347 424.644 97.104C425.435 98.1587 426.028 99.4258 426.424 100.905C426.819 102.385 427.017 104.025 427.017 105.827ZM419.612 106.289V105.827C419.612 104.904 419.546 104.062 419.415 103.3C419.283 102.524 419.07 101.85 418.777 101.279C418.499 100.708 418.125 100.268 417.657 99.9604C417.188 99.6528 416.609 99.499 415.921 99.499C415.13 99.499 414.463 99.6235 413.921 99.8726C413.394 100.107 412.969 100.473 412.647 100.971C412.339 101.455 412.12 102.062 411.988 102.795C411.871 103.513 411.819 104.355 411.834 105.322V107.124C411.805 108.237 411.915 109.218 412.164 110.068C412.413 110.903 412.845 111.555 413.46 112.023C414.075 112.492 414.91 112.727 415.965 112.727C416.668 112.727 417.254 112.565 417.723 112.243C418.191 111.906 418.565 111.445 418.843 110.859C419.122 110.258 419.319 109.57 419.437 108.793C419.554 108.017 419.612 107.182 419.612 106.289ZM437.564 84.25V118H430.159V84.25H437.564ZM436.685 105.3L434.949 105.344C434.949 103.674 435.154 102.136 435.564 100.729C435.975 99.3232 436.561 98.1001 437.322 97.0601C438.084 96.02 439 95.2144 440.069 94.6431C441.138 94.0718 442.325 93.7861 443.628 93.7861C444.8 93.7861 445.87 93.9546 446.836 94.2915C447.818 94.6284 448.66 95.1704 449.363 95.9175C450.081 96.6646 450.63 97.6387 451.011 98.8398C451.407 100.041 451.604 101.506 451.604 103.234V118H444.156V103.19C444.156 102.224 444.017 101.477 443.738 100.949C443.475 100.407 443.094 100.034 442.596 99.8286C442.098 99.6089 441.49 99.499 440.772 99.499C439.908 99.499 439.205 99.6455 438.663 99.9385C438.121 100.231 437.703 100.642 437.41 101.169C437.132 101.682 436.941 102.29 436.839 102.993C436.736 103.696 436.685 104.465 436.685 105.3ZM463.008 115.209L469.161 94.2256H477.115L467.557 121.538C467.352 122.138 467.081 122.783 466.744 123.471C466.407 124.174 465.945 124.841 465.359 125.471C464.773 126.101 464.019 126.613 463.096 127.009C462.188 127.404 461.06 127.602 459.712 127.602C458.995 127.602 458.467 127.565 458.13 127.492C457.808 127.434 457.31 127.324 456.636 127.163V121.867C456.827 121.867 456.988 121.867 457.12 121.867C457.266 121.867 457.427 121.867 457.603 121.867C458.394 121.867 459.024 121.787 459.493 121.625C459.976 121.464 460.342 121.23 460.591 120.922C460.855 120.615 461.06 120.241 461.207 119.802L463.008 115.209ZM461.448 94.2256L466.128 110.859L466.941 118.703H461.976L453.516 94.2256H461.448Z" fill="#163852"/>
<path d="M1363 15C1363 6.71573 1356.28 0 1348 0H1134V167H1348C1356.28 167 1363 160.284 1363 152V15Z" fill="#2596BE"/>
<path d="M1234.26 106.286H1262.74V111.857H1234.26V106.286ZM1239.96 117.429H1257.04V123H1239.96V117.429ZM1248.5 45C1240.95 45 1233.71 47.9349 1228.37 53.1592C1223.03 58.3834 1220.03 65.469 1220.03 72.8571C1219.84 76.9057 1220.63 80.9412 1222.34 84.6315C1224.05 88.3219 1226.64 91.5616 1229.88 94.0843C1232.73 96.675 1234.26 98.1514 1234.26 100.714H1239.96C1239.96 95.5886 1236.8 92.7193 1233.72 89.9614C1231.06 87.9676 1228.94 85.3658 1227.55 82.3838C1226.15 79.4019 1225.53 76.1308 1225.72 72.8571C1225.72 66.9466 1228.12 61.2781 1232.39 57.0988C1236.67 52.9194 1242.46 50.5714 1248.5 50.5714C1254.54 50.5714 1260.33 52.9194 1264.61 57.0988C1268.88 61.2781 1271.28 66.9466 1271.28 72.8571C1271.47 76.1333 1270.84 79.4059 1269.44 82.388C1268.04 85.3701 1265.92 87.9706 1263.25 89.9614C1260.2 92.7471 1257.04 95.5329 1257.04 100.714H1262.74C1262.74 98.1514 1264.25 96.675 1267.12 94.0564C1270.36 91.5381 1272.94 88.3031 1274.66 84.6176C1276.37 80.9321 1277.16 76.9014 1276.97 72.8571C1276.97 69.1989 1276.24 65.5765 1274.81 62.1967C1273.37 58.8169 1271.28 55.7459 1268.63 53.1592C1265.99 50.5724 1262.85 48.5205 1259.4 47.1205C1255.94 45.7205 1252.24 45 1248.5 45V45Z" fill="white"/>
</svg>
