<svg width="1363" height="167" viewBox="0 0 1363 167" fill="none" xmlns="http://www.w3.org/2000/svg">
<rect width="1363" height="167" rx="15" fill="#F0F0F0"/>
<path d="M0 15C0 6.71573 6.71573 0 15 0H37V167H15C6.71573 167 0 160.284 0 152V15Z" fill="#AACEE8"/>
<path d="M100.906 50.9219L93.3945 48.2383V45.0859L103.602 49.375V51.6367L100.906 50.9219ZM93.3945 53.1719L100.918 50.4297L103.602 49.7852V52.0352L93.3945 56.3242V53.1719ZM118.836 43.8555L114.195 58H110.457L116.797 40.9375H119.176L118.836 43.8555ZM122.691 58L118.039 43.8555L117.664 40.9375H120.066L126.441 58H122.691ZM122.48 51.6484V54.4023H113.469V51.6484H122.48ZM137.234 40.9375H140.738V52.2109C140.738 53.5234 140.457 54.6289 139.895 55.5273C139.34 56.4258 138.57 57.1016 137.586 57.5547C136.609 58.0078 135.484 58.2344 134.211 58.2344C132.938 58.2344 131.805 58.0078 130.812 57.5547C129.828 57.1016 129.055 56.4258 128.492 55.5273C127.938 54.6289 127.66 53.5234 127.66 52.2109V40.9375H131.176V52.2109C131.176 52.9766 131.297 53.6016 131.539 54.0859C131.781 54.5703 132.129 54.9258 132.582 55.1523C133.043 55.3789 133.586 55.4922 134.211 55.4922C134.852 55.4922 135.395 55.3789 135.84 55.1523C136.293 54.9258 136.637 54.5703 136.871 54.0859C137.113 53.6016 137.234 52.9766 137.234 52.2109V40.9375ZM152.516 53.5352C152.516 53.2305 152.469 52.957 152.375 52.7148C152.289 52.4648 152.125 52.2383 151.883 52.0352C151.641 51.8242 151.301 51.6172 150.863 51.4141C150.426 51.2109 149.859 51 149.164 50.7812C148.391 50.5312 147.656 50.25 146.961 49.9375C146.273 49.625 145.664 49.2617 145.133 48.8477C144.609 48.4258 144.195 47.9375 143.891 47.3828C143.594 46.8281 143.445 46.1836 143.445 45.4492C143.445 44.7383 143.602 44.0938 143.914 43.5156C144.227 42.9297 144.664 42.4297 145.227 42.0156C145.789 41.5938 146.453 41.2695 147.219 41.043C147.992 40.8164 148.84 40.7031 149.762 40.7031C151.02 40.7031 152.117 40.9297 153.055 41.3828C153.992 41.8359 154.719 42.457 155.234 43.2461C155.758 44.0352 156.02 44.9375 156.02 45.9531H152.527C152.527 45.4531 152.422 45.0156 152.211 44.6406C152.008 44.2578 151.695 43.957 151.273 43.7383C150.859 43.5195 150.336 43.4102 149.703 43.4102C149.094 43.4102 148.586 43.5039 148.18 43.6914C147.773 43.8711 147.469 44.1172 147.266 44.4297C147.062 44.7344 146.961 45.0781 146.961 45.4609C146.961 45.75 147.031 46.0117 147.172 46.2461C147.32 46.4805 147.539 46.6992 147.828 46.9023C148.117 47.1055 148.473 47.2969 148.895 47.4766C149.316 47.6562 149.805 47.832 150.359 48.0039C151.289 48.2852 152.105 48.6016 152.809 48.9531C153.52 49.3047 154.113 49.6992 154.59 50.1367C155.066 50.5742 155.426 51.0703 155.668 51.625C155.91 52.1797 156.031 52.8086 156.031 53.5117C156.031 54.2539 155.887 54.918 155.598 55.5039C155.309 56.0898 154.891 56.5859 154.344 56.9922C153.797 57.3984 153.145 57.707 152.387 57.918C151.629 58.1289 150.781 58.2344 149.844 58.2344C149 58.2344 148.168 58.125 147.348 57.9062C146.527 57.6797 145.781 57.3398 145.109 56.8867C144.445 56.4336 143.914 55.8555 143.516 55.1523C143.117 54.4492 142.918 53.6172 142.918 52.6562H146.445C146.445 53.1875 146.527 53.6367 146.691 54.0039C146.855 54.3711 147.086 54.668 147.383 54.8945C147.688 55.1211 148.047 55.2852 148.461 55.3867C148.883 55.4883 149.344 55.5391 149.844 55.5391C150.453 55.5391 150.953 55.4531 151.344 55.2812C151.742 55.1094 152.035 54.8711 152.223 54.5664C152.418 54.2617 152.516 53.918 152.516 53.5352ZM166.051 40.9375V58H162.547V40.9375H166.051ZM171.301 40.9375V43.6914H157.379V40.9375H171.301ZM184.801 54.4375L188.82 40.9375H192.734L186.793 58H184.215L184.801 54.4375ZM181.098 40.9375L185.105 54.4375L185.715 58H183.113L177.207 40.9375H181.098ZM197.68 45.3203V58H194.293V45.3203H197.68ZM194.082 42.0156C194.082 41.5234 194.254 41.1172 194.598 40.7969C194.941 40.4766 195.402 40.3164 195.98 40.3164C196.551 40.3164 197.008 40.4766 197.352 40.7969C197.703 41.1172 197.879 41.5234 197.879 42.0156C197.879 42.5078 197.703 42.9141 197.352 43.2344C197.008 43.5547 196.551 43.7148 195.98 43.7148C195.402 43.7148 194.941 43.5547 194.598 43.2344C194.254 42.9141 194.082 42.5078 194.082 42.0156ZM203.844 48.0859V58H200.469V45.3203H203.645L203.844 48.0859ZM207.664 45.2383L207.605 48.3672C207.441 48.3438 207.242 48.3242 207.008 48.3086C206.781 48.2852 206.574 48.2734 206.387 48.2734C205.91 48.2734 205.496 48.3359 205.145 48.4609C204.801 48.5781 204.512 48.7539 204.277 48.9883C204.051 49.2227 203.879 49.5078 203.762 49.8438C203.652 50.1797 203.59 50.5625 203.574 50.9922L202.895 50.7812C202.895 49.9609 202.977 49.207 203.141 48.5195C203.305 47.8242 203.543 47.2188 203.855 46.7031C204.176 46.1875 204.566 45.7891 205.027 45.5078C205.488 45.2266 206.016 45.0859 206.609 45.0859C206.797 45.0859 206.988 45.1016 207.184 45.1328C207.379 45.1562 207.539 45.1914 207.664 45.2383ZM216.055 45.3203V47.7109H208.672V45.3203H216.055ZM210.5 42.1914H213.875V54.1797C213.875 54.5469 213.922 54.8281 214.016 55.0234C214.117 55.2188 214.266 55.3555 214.461 55.4336C214.656 55.5039 214.902 55.5391 215.199 55.5391C215.41 55.5391 215.598 55.5312 215.762 55.5156C215.934 55.4922 216.078 55.4688 216.195 55.4453L216.207 57.9297C215.918 58.0234 215.605 58.0977 215.27 58.1523C214.934 58.207 214.562 58.2344 214.156 58.2344C213.414 58.2344 212.766 58.1133 212.211 57.8711C211.664 57.6211 211.242 57.2227 210.945 56.6758C210.648 56.1289 210.5 55.4102 210.5 54.5195V42.1914ZM225.477 54.9648V45.3203H228.852V58H225.676L225.477 54.9648ZM225.852 52.3633L226.848 52.3398C226.848 53.1836 226.75 53.9688 226.555 54.6953C226.359 55.4141 226.066 56.0391 225.676 56.5703C225.285 57.0938 224.793 57.5039 224.199 57.8008C223.605 58.0898 222.906 58.2344 222.102 58.2344C221.484 58.2344 220.914 58.1484 220.391 57.9766C219.875 57.7969 219.43 57.5195 219.055 57.1445C218.688 56.7617 218.398 56.2734 218.188 55.6797C217.984 55.0781 217.883 54.3555 217.883 53.5117V45.3203H221.258V53.5352C221.258 53.9102 221.301 54.2266 221.387 54.4844C221.48 54.7422 221.609 54.9531 221.773 55.1172C221.938 55.2812 222.129 55.3984 222.348 55.4688C222.574 55.5391 222.824 55.5742 223.098 55.5742C223.793 55.5742 224.34 55.4336 224.738 55.1523C225.145 54.8711 225.43 54.4883 225.594 54.0039C225.766 53.5117 225.852 52.9648 225.852 52.3633ZM238.273 55.1406V49.4922C238.273 49.0859 238.207 48.7383 238.074 48.4492C237.941 48.1523 237.734 47.9219 237.453 47.7578C237.18 47.5938 236.824 47.5117 236.387 47.5117C236.012 47.5117 235.688 47.5781 235.414 47.7109C235.141 47.8359 234.93 48.0195 234.781 48.2617C234.633 48.4961 234.559 48.7734 234.559 49.0938H231.184C231.184 48.5547 231.309 48.043 231.559 47.5586C231.809 47.0742 232.172 46.6484 232.648 46.2812C233.125 45.9062 233.691 45.6133 234.348 45.4023C235.012 45.1914 235.754 45.0859 236.574 45.0859C237.559 45.0859 238.434 45.25 239.199 45.5781C239.965 45.9062 240.566 46.3984 241.004 47.0547C241.449 47.7109 241.672 48.5312 241.672 49.5156V54.9414C241.672 55.6367 241.715 56.207 241.801 56.6523C241.887 57.0898 242.012 57.4727 242.176 57.8008V58H238.766C238.602 57.6562 238.477 57.2266 238.391 56.7109C238.312 56.1875 238.273 55.6641 238.273 55.1406ZM238.719 50.2773L238.742 52.1875H236.855C236.41 52.1875 236.023 52.2383 235.695 52.3398C235.367 52.4414 235.098 52.5859 234.887 52.7734C234.676 52.9531 234.52 53.1641 234.418 53.4062C234.324 53.6484 234.277 53.9141 234.277 54.2031C234.277 54.4922 234.344 54.7539 234.477 54.9883C234.609 55.2148 234.801 55.3945 235.051 55.5273C235.301 55.6523 235.594 55.7148 235.93 55.7148C236.438 55.7148 236.879 55.6133 237.254 55.4102C237.629 55.207 237.918 54.957 238.121 54.6602C238.332 54.3633 238.441 54.082 238.449 53.8164L239.34 55.2461C239.215 55.5664 239.043 55.8984 238.824 56.2422C238.613 56.5859 238.344 56.9102 238.016 57.2148C237.688 57.5117 237.293 57.7578 236.832 57.9531C236.371 58.1406 235.824 58.2344 235.191 58.2344C234.387 58.2344 233.656 58.0742 233 57.7539C232.352 57.4258 231.836 56.9766 231.453 56.4062C231.078 55.8281 230.891 55.1719 230.891 54.4375C230.891 53.7734 231.016 53.1836 231.266 52.668C231.516 52.1523 231.883 51.7188 232.367 51.3672C232.859 51.0078 233.473 50.7383 234.207 50.5586C234.941 50.3711 235.793 50.2773 236.762 50.2773H238.719ZM247.836 40V58H244.449V40H247.836ZM260.727 52.3398H264.23C264.16 53.4883 263.844 54.5078 263.281 55.3984C262.727 56.2891 261.949 56.9844 260.949 57.4844C259.957 57.9844 258.762 58.2344 257.363 58.2344C256.27 58.2344 255.289 58.0469 254.422 57.6719C253.555 57.2891 252.812 56.7422 252.195 56.0312C251.586 55.3203 251.121 54.4609 250.801 53.4531C250.48 52.4453 250.32 51.3164 250.32 50.0664V48.8828C250.32 47.6328 250.484 46.5039 250.812 45.4961C251.148 44.4805 251.625 43.6172 252.242 42.9062C252.867 42.1953 253.613 41.6484 254.48 41.2656C255.348 40.8828 256.316 40.6914 257.387 40.6914C258.809 40.6914 260.008 40.9492 260.984 41.4648C261.969 41.9805 262.73 42.6914 263.27 43.5977C263.816 44.5039 264.145 45.5352 264.254 46.6914H260.738C260.699 46.0039 260.562 45.4219 260.328 44.9453C260.094 44.4609 259.738 44.0977 259.262 43.8555C258.793 43.6055 258.168 43.4805 257.387 43.4805C256.801 43.4805 256.289 43.5898 255.852 43.8086C255.414 44.0273 255.047 44.3594 254.75 44.8047C254.453 45.25 254.23 45.8125 254.082 46.4922C253.941 47.1641 253.871 47.9531 253.871 48.8594V50.0664C253.871 50.9492 253.938 51.7266 254.07 52.3984C254.203 53.0625 254.406 53.625 254.68 54.0859C254.961 54.5391 255.32 54.8828 255.758 55.1172C256.203 55.3438 256.738 55.457 257.363 55.457C258.098 55.457 258.703 55.3398 259.18 55.1055C259.656 54.8711 260.02 54.5234 260.27 54.0625C260.527 53.6016 260.68 53.0273 260.727 52.3398ZM273.172 55.1406V49.4922C273.172 49.0859 273.105 48.7383 272.973 48.4492C272.84 48.1523 272.633 47.9219 272.352 47.7578C272.078 47.5938 271.723 47.5117 271.285 47.5117C270.91 47.5117 270.586 47.5781 270.312 47.7109C270.039 47.8359 269.828 48.0195 269.68 48.2617C269.531 48.4961 269.457 48.7734 269.457 49.0938H266.082C266.082 48.5547 266.207 48.043 266.457 47.5586C266.707 47.0742 267.07 46.6484 267.547 46.2812C268.023 45.9062 268.59 45.6133 269.246 45.4023C269.91 45.1914 270.652 45.0859 271.473 45.0859C272.457 45.0859 273.332 45.25 274.098 45.5781C274.863 45.9062 275.465 46.3984 275.902 47.0547C276.348 47.7109 276.57 48.5312 276.57 49.5156V54.9414C276.57 55.6367 276.613 56.207 276.699 56.6523C276.785 57.0898 276.91 57.4727 277.074 57.8008V58H273.664C273.5 57.6562 273.375 57.2266 273.289 56.7109C273.211 56.1875 273.172 55.6641 273.172 55.1406ZM273.617 50.2773L273.641 52.1875H271.754C271.309 52.1875 270.922 52.2383 270.594 52.3398C270.266 52.4414 269.996 52.5859 269.785 52.7734C269.574 52.9531 269.418 53.1641 269.316 53.4062C269.223 53.6484 269.176 53.9141 269.176 54.2031C269.176 54.4922 269.242 54.7539 269.375 54.9883C269.508 55.2148 269.699 55.3945 269.949 55.5273C270.199 55.6523 270.492 55.7148 270.828 55.7148C271.336 55.7148 271.777 55.6133 272.152 55.4102C272.527 55.207 272.816 54.957 273.02 54.6602C273.23 54.3633 273.34 54.082 273.348 53.8164L274.238 55.2461C274.113 55.5664 273.941 55.8984 273.723 56.2422C273.512 56.5859 273.242 56.9102 272.914 57.2148C272.586 57.5117 272.191 57.7578 271.73 57.9531C271.27 58.1406 270.723 58.2344 270.09 58.2344C269.285 58.2344 268.555 58.0742 267.898 57.7539C267.25 57.4258 266.734 56.9766 266.352 56.4062C265.977 55.8281 265.789 55.1719 265.789 54.4375C265.789 53.7734 265.914 53.1836 266.164 52.668C266.414 52.1523 266.781 51.7188 267.266 51.3672C267.758 51.0078 268.371 50.7383 269.105 50.5586C269.84 50.3711 270.691 50.2773 271.66 50.2773H273.617ZM282.547 47.9453V58H279.16V45.3203H282.336L282.547 47.9453ZM282.078 51.2148H281.141C281.141 50.332 281.246 49.5195 281.457 48.7773C281.676 48.0273 281.992 47.3789 282.406 46.832C282.828 46.2773 283.348 45.8477 283.965 45.543C284.582 45.2383 285.297 45.0859 286.109 45.0859C286.672 45.0859 287.188 45.1719 287.656 45.3438C288.125 45.5078 288.527 45.7695 288.863 46.1289C289.207 46.4805 289.473 46.9414 289.66 47.5117C289.848 48.0742 289.941 48.75 289.941 49.5391V58H286.566V49.9141C286.566 49.3359 286.488 48.8906 286.332 48.5781C286.176 48.2656 285.953 48.0469 285.664 47.9219C285.383 47.7969 285.043 47.7344 284.645 47.7344C284.207 47.7344 283.824 47.8242 283.496 48.0039C283.176 48.1836 282.91 48.4336 282.699 48.7539C282.488 49.0664 282.332 49.4336 282.23 49.8555C282.129 50.2773 282.078 50.7305 282.078 51.2148ZM289.625 50.8281L288.418 50.9805C288.418 50.1523 288.52 49.3828 288.723 48.6719C288.934 47.9609 289.242 47.3359 289.648 46.7969C290.062 46.2578 290.574 45.8398 291.184 45.543C291.793 45.2383 292.496 45.0859 293.293 45.0859C293.902 45.0859 294.457 45.1758 294.957 45.3555C295.457 45.5273 295.883 45.8047 296.234 46.1875C296.594 46.5625 296.867 47.0547 297.055 47.6641C297.25 48.2734 297.348 49.0195 297.348 49.9023V58H293.961V49.9023C293.961 49.3164 293.883 48.8711 293.727 48.5664C293.578 48.2539 293.359 48.0391 293.07 47.9219C292.789 47.7969 292.453 47.7344 292.062 47.7344C291.656 47.7344 291.301 47.8164 290.996 47.9805C290.691 48.1367 290.438 48.3555 290.234 48.6367C290.031 48.918 289.879 49.2461 289.777 49.6211C289.676 49.9883 289.625 50.3906 289.625 50.8281ZM303.336 47.7578V62.875H299.961V45.3203H303.09L303.336 47.7578ZM311.363 51.5195V51.7656C311.363 52.6875 311.254 53.543 311.035 54.332C310.824 55.1211 310.512 55.8086 310.098 56.3945C309.684 56.9727 309.168 57.4258 308.551 57.7539C307.941 58.0742 307.238 58.2344 306.441 58.2344C305.668 58.2344 304.996 58.0781 304.426 57.7656C303.855 57.4531 303.375 57.0156 302.984 56.4531C302.602 55.8828 302.293 55.2227 302.059 54.4727C301.824 53.7227 301.645 52.918 301.52 52.0586V51.4141C301.645 50.4922 301.824 49.6484 302.059 48.8828C302.293 48.1094 302.602 47.4414 302.984 46.8789C303.375 46.3086 303.852 45.8672 304.414 45.5547C304.984 45.2422 305.652 45.0859 306.418 45.0859C307.223 45.0859 307.93 45.2383 308.539 45.543C309.156 45.8477 309.672 46.2852 310.086 46.8555C310.508 47.4258 310.824 48.1055 311.035 48.8945C311.254 49.6836 311.363 50.5586 311.363 51.5195ZM307.977 51.7656V51.5195C307.977 50.9805 307.93 50.4844 307.836 50.0312C307.75 49.5703 307.609 49.168 307.414 48.8242C307.227 48.4805 306.977 48.2148 306.664 48.0273C306.359 47.832 305.988 47.7344 305.551 47.7344C305.09 47.7344 304.695 47.8086 304.367 47.957C304.047 48.1055 303.785 48.3203 303.582 48.6016C303.379 48.8828 303.227 49.2188 303.125 49.6094C303.023 50 302.961 50.4414 302.938 50.9336V52.5625C302.977 53.1406 303.086 53.6602 303.266 54.1211C303.445 54.5742 303.723 54.9336 304.098 55.1992C304.473 55.4648 304.965 55.5977 305.574 55.5977C306.02 55.5977 306.395 55.5 306.699 55.3047C307.004 55.1016 307.25 54.8242 307.438 54.4727C307.633 54.1211 307.77 53.7148 307.848 53.2539C307.934 52.793 307.977 52.2969 307.977 51.7656ZM320.961 54.9648V45.3203H324.336V58H321.16L320.961 54.9648ZM321.336 52.3633L322.332 52.3398C322.332 53.1836 322.234 53.9688 322.039 54.6953C321.844 55.4141 321.551 56.0391 321.16 56.5703C320.77 57.0938 320.277 57.5039 319.684 57.8008C319.09 58.0898 318.391 58.2344 317.586 58.2344C316.969 58.2344 316.398 58.1484 315.875 57.9766C315.359 57.7969 314.914 57.5195 314.539 57.1445C314.172 56.7617 313.883 56.2734 313.672 55.6797C313.469 55.0781 313.367 54.3555 313.367 53.5117V45.3203H316.742V53.5352C316.742 53.9102 316.785 54.2266 316.871 54.4844C316.965 54.7422 317.094 54.9531 317.258 55.1172C317.422 55.2812 317.613 55.3984 317.832 55.4688C318.059 55.5391 318.309 55.5742 318.582 55.5742C319.277 55.5742 319.824 55.4336 320.223 55.1523C320.629 54.8711 320.914 54.4883 321.078 54.0039C321.25 53.5117 321.336 52.9648 321.336 52.3633ZM333.77 54.4961C333.77 54.2539 333.699 54.0352 333.559 53.8398C333.418 53.6445 333.156 53.4648 332.773 53.3008C332.398 53.1289 331.855 52.9727 331.145 52.832C330.504 52.6914 329.906 52.5156 329.352 52.3047C328.805 52.0859 328.328 51.8242 327.922 51.5195C327.523 51.2148 327.211 50.8555 326.984 50.4414C326.758 50.0195 326.645 49.5391 326.645 49C326.645 48.4688 326.758 47.9688 326.984 47.5C327.219 47.0312 327.551 46.6172 327.98 46.2578C328.418 45.8906 328.949 45.6055 329.574 45.4023C330.207 45.1914 330.918 45.0859 331.707 45.0859C332.809 45.0859 333.754 45.2617 334.543 45.6133C335.34 45.9648 335.949 46.4492 336.371 47.0664C336.801 47.6758 337.016 48.3711 337.016 49.1523H333.641C333.641 48.8242 333.57 48.5312 333.43 48.2734C333.297 48.0078 333.086 47.8008 332.797 47.6523C332.516 47.4961 332.148 47.418 331.695 47.418C331.32 47.418 330.996 47.4844 330.723 47.6172C330.449 47.7422 330.238 47.9141 330.09 48.1328C329.949 48.3438 329.879 48.5781 329.879 48.8359C329.879 49.0312 329.918 49.207 329.996 49.3633C330.082 49.5117 330.219 49.6484 330.406 49.7734C330.594 49.8984 330.836 50.0156 331.133 50.125C331.438 50.2266 331.812 50.3203 332.258 50.4062C333.172 50.5938 333.988 50.8398 334.707 51.1445C335.426 51.4414 335.996 51.8477 336.418 52.3633C336.84 52.8711 337.051 53.5391 337.051 54.3672C337.051 54.9297 336.926 55.4453 336.676 55.9141C336.426 56.3828 336.066 56.793 335.598 57.1445C335.129 57.4883 334.566 57.7578 333.91 57.9531C333.262 58.1406 332.531 58.2344 331.719 58.2344C330.539 58.2344 329.539 58.0234 328.719 57.6016C327.906 57.1797 327.289 56.6445 326.867 55.9961C326.453 55.3398 326.246 54.668 326.246 53.9805H329.445C329.461 54.4414 329.578 54.8125 329.797 55.0938C330.023 55.375 330.309 55.5781 330.652 55.7031C331.004 55.8281 331.383 55.8906 331.789 55.8906C332.227 55.8906 332.59 55.832 332.879 55.7148C333.168 55.5898 333.387 55.4258 333.535 55.2227C333.691 55.0117 333.77 54.7695 333.77 54.4961Z" fill="#888888"/>
<path d="M109.93 86.0078V118H102.217V86.0078H109.93ZM119.554 86.0078V91.9624H92.813V86.0078H119.554ZM132.012 118.439C130.079 118.439 128.35 118.139 126.827 117.539C125.303 116.923 124.014 116.081 122.959 115.012C121.919 113.942 121.121 112.712 120.564 111.32C120.022 109.929 119.751 108.457 119.751 106.904V106.069C119.751 104.326 119.993 102.714 120.477 101.235C120.96 99.7407 121.678 98.437 122.63 97.3237C123.582 96.2104 124.776 95.3462 126.211 94.731C127.647 94.1011 129.317 93.7861 131.221 93.7861C132.906 93.7861 134.415 94.0571 135.748 94.5991C137.081 95.1411 138.208 95.9175 139.131 96.9282C140.069 97.939 140.779 99.1621 141.263 100.598C141.761 102.033 142.01 103.645 142.01 105.432V108.442H122.586V103.806H134.781V103.234C134.795 102.443 134.656 101.77 134.363 101.213C134.085 100.656 133.675 100.231 133.133 99.9385C132.591 99.6455 131.932 99.499 131.155 99.499C130.35 99.499 129.683 99.6748 129.156 100.026C128.643 100.378 128.24 100.861 127.947 101.477C127.669 102.077 127.471 102.773 127.354 103.564C127.237 104.355 127.178 105.19 127.178 106.069V106.904C127.178 107.783 127.295 108.581 127.53 109.299C127.779 110.017 128.13 110.632 128.584 111.145C129.053 111.643 129.61 112.031 130.254 112.309C130.914 112.587 131.661 112.727 132.496 112.727C133.506 112.727 134.502 112.536 135.484 112.155C136.465 111.774 137.308 111.145 138.011 110.266L141.373 114.265C140.889 114.953 140.201 115.62 139.307 116.264C138.428 116.909 137.374 117.436 136.143 117.846C134.913 118.242 133.536 118.439 132.012 118.439ZM155.062 112.727C155.75 112.727 156.336 112.602 156.819 112.353C157.317 112.089 157.691 111.723 157.94 111.254C158.204 110.771 158.328 110.192 158.313 109.519H165.279C165.293 111.306 164.854 112.873 163.96 114.221C163.082 115.554 161.88 116.594 160.357 117.341C158.848 118.073 157.142 118.439 155.237 118.439C153.377 118.439 151.751 118.139 150.359 117.539C148.968 116.923 147.803 116.074 146.866 114.99C145.943 113.891 145.247 112.609 144.778 111.145C144.324 109.68 144.097 108.09 144.097 106.376V105.871C144.097 104.157 144.324 102.568 144.778 101.103C145.247 99.6235 145.943 98.3418 146.866 97.2578C147.803 96.1592 148.96 95.3096 150.337 94.709C151.729 94.0938 153.348 93.7861 155.193 93.7861C157.171 93.7861 158.914 94.1597 160.423 94.9067C161.946 95.6538 163.14 96.7378 164.004 98.1587C164.869 99.5796 165.293 101.301 165.279 103.322H158.313C158.328 102.604 158.218 101.96 157.984 101.389C157.75 100.817 157.383 100.363 156.885 100.026C156.402 99.6748 155.779 99.499 155.018 99.499C154.256 99.499 153.641 99.6675 153.172 100.004C152.703 100.341 152.344 100.81 152.095 101.411C151.861 101.997 151.7 102.67 151.612 103.432C151.539 104.194 151.502 105.007 151.502 105.871V106.376C151.502 107.255 151.539 108.083 151.612 108.859C151.7 109.621 151.868 110.295 152.117 110.881C152.366 111.452 152.725 111.906 153.194 112.243C153.663 112.565 154.285 112.727 155.062 112.727ZM175.694 84.25V118H168.289V84.25H175.694ZM174.815 105.3L173.079 105.344C173.079 103.674 173.284 102.136 173.694 100.729C174.104 99.3232 174.69 98.1001 175.452 97.0601C176.214 96.02 177.129 95.2144 178.199 94.6431C179.268 94.0718 180.455 93.7861 181.758 93.7861C182.93 93.7861 184 93.9546 184.966 94.2915C185.948 94.6284 186.79 95.1704 187.493 95.9175C188.211 96.6646 188.76 97.6387 189.141 98.8398C189.537 100.041 189.734 101.506 189.734 103.234V118H182.286V103.19C182.286 102.224 182.146 101.477 181.868 100.949C181.604 100.407 181.224 100.034 180.726 99.8286C180.228 99.6089 179.62 99.499 178.902 99.499C178.038 99.499 177.334 99.6455 176.792 99.9385C176.25 100.231 175.833 100.642 175.54 101.169C175.262 101.682 175.071 102.29 174.969 102.993C174.866 103.696 174.815 104.465 174.815 105.3ZM221.88 109.497C221.88 108.999 221.807 108.552 221.661 108.156C221.514 107.746 221.243 107.365 220.848 107.014C220.452 106.662 219.881 106.311 219.134 105.959C218.401 105.593 217.435 105.212 216.233 104.816C214.827 104.348 213.472 103.82 212.168 103.234C210.865 102.634 209.7 101.938 208.675 101.147C207.649 100.341 206.836 99.4038 206.236 98.3345C205.635 97.2505 205.335 95.9907 205.335 94.5552C205.335 93.1782 205.643 91.9404 206.258 90.8418C206.873 89.7285 207.73 88.7837 208.829 88.0073C209.942 87.2163 211.246 86.6157 212.74 86.2056C214.234 85.7808 215.867 85.5684 217.64 85.5684C219.983 85.5684 222.049 85.9785 223.836 86.7988C225.638 87.6045 227.044 88.7544 228.055 90.2485C229.08 91.728 229.593 93.4785 229.593 95.5H221.924C221.924 94.6943 221.756 93.9839 221.419 93.3687C221.097 92.7534 220.606 92.27 219.947 91.9185C219.288 91.5669 218.46 91.3911 217.464 91.3911C216.497 91.3911 215.684 91.5376 215.025 91.8306C214.366 92.1235 213.868 92.519 213.531 93.0171C213.194 93.5005 213.025 94.0352 213.025 94.6211C213.025 95.1045 213.157 95.5439 213.421 95.9395C213.699 96.3203 214.087 96.6792 214.585 97.0161C215.098 97.353 215.713 97.6753 216.431 97.9829C217.164 98.2905 217.984 98.5908 218.892 98.8838C220.591 99.4258 222.1 100.034 223.418 100.708C224.751 101.367 225.872 102.121 226.78 102.971C227.703 103.806 228.399 104.758 228.868 105.827C229.351 106.896 229.593 108.105 229.593 109.453C229.593 110.888 229.314 112.163 228.758 113.276C228.201 114.389 227.403 115.334 226.363 116.11C225.323 116.872 224.078 117.451 222.627 117.846C221.177 118.242 219.559 118.439 217.771 118.439C216.131 118.439 214.512 118.234 212.916 117.824C211.333 117.399 209.898 116.755 208.609 115.891C207.32 115.012 206.287 113.891 205.511 112.529C204.749 111.152 204.368 109.519 204.368 107.629H212.103C212.103 108.566 212.227 109.357 212.476 110.002C212.725 110.646 213.091 111.167 213.575 111.562C214.058 111.943 214.651 112.221 215.354 112.397C216.058 112.558 216.863 112.639 217.771 112.639C218.753 112.639 219.544 112.5 220.145 112.221C220.745 111.928 221.185 111.547 221.463 111.079C221.741 110.595 221.88 110.068 221.88 109.497ZM245.743 94.2256V99.3672H231.417V94.2256H245.743ZM234.427 88.3149H241.832V110.244C241.832 110.874 241.905 111.364 242.051 111.716C242.198 112.053 242.447 112.294 242.798 112.441C243.165 112.573 243.648 112.639 244.249 112.639C244.673 112.639 245.025 112.631 245.303 112.617C245.582 112.587 245.845 112.551 246.094 112.507V117.802C245.464 118.007 244.805 118.161 244.117 118.264C243.428 118.381 242.696 118.439 241.919 118.439C240.337 118.439 238.982 118.19 237.854 117.692C236.741 117.194 235.892 116.411 235.306 115.341C234.72 114.272 234.427 112.88 234.427 111.167V88.3149ZM261.036 112.023V102.224C261.036 101.55 260.94 100.971 260.75 100.488C260.56 100.004 260.259 99.6309 259.849 99.3672C259.439 99.0889 258.89 98.9497 258.201 98.9497C257.645 98.9497 257.168 99.0449 256.773 99.2354C256.377 99.4258 256.077 99.7114 255.872 100.092C255.667 100.473 255.564 100.957 255.564 101.542H248.16C248.16 100.444 248.401 99.4258 248.885 98.4883C249.383 97.5361 250.086 96.7085 250.994 96.0054C251.917 95.3022 253.016 94.7603 254.29 94.3794C255.579 93.9839 257.015 93.7861 258.597 93.7861C260.486 93.7861 262.171 94.1011 263.65 94.731C265.145 95.3608 266.324 96.3057 267.188 97.5654C268.052 98.8105 268.484 100.378 268.484 102.268V112.001C268.484 113.554 268.572 114.733 268.748 115.539C268.924 116.33 269.173 117.026 269.495 117.626V118H262.068C261.717 117.268 261.453 116.374 261.277 115.319C261.116 114.25 261.036 113.151 261.036 112.023ZM261.937 103.476L261.98 107.431H258.707C258.018 107.431 257.432 107.526 256.949 107.717C256.48 107.907 256.099 108.171 255.806 108.508C255.528 108.83 255.323 109.196 255.191 109.606C255.074 110.017 255.015 110.449 255.015 110.903C255.015 111.342 255.118 111.738 255.323 112.089C255.542 112.426 255.835 112.69 256.202 112.88C256.568 113.071 256.978 113.166 257.432 113.166C258.252 113.166 258.948 113.012 259.52 112.705C260.105 112.382 260.552 111.994 260.86 111.54C261.167 111.086 261.321 110.661 261.321 110.266L262.947 113.298C262.654 113.884 262.317 114.477 261.937 115.078C261.57 115.678 261.109 116.235 260.552 116.748C260.01 117.246 259.344 117.656 258.553 117.978C257.762 118.286 256.802 118.439 255.674 118.439C254.209 118.439 252.862 118.139 251.631 117.539C250.416 116.938 249.441 116.103 248.709 115.034C247.977 113.95 247.61 112.705 247.61 111.298C247.61 110.068 247.83 108.969 248.27 108.002C248.724 107.036 249.405 106.215 250.313 105.542C251.221 104.868 252.378 104.355 253.785 104.003C255.191 103.652 256.846 103.476 258.75 103.476H261.937ZM282.635 112.727C283.323 112.727 283.909 112.602 284.393 112.353C284.891 112.089 285.264 111.723 285.513 111.254C285.777 110.771 285.901 110.192 285.887 109.519H292.852C292.867 111.306 292.427 112.873 291.534 114.221C290.655 115.554 289.454 116.594 287.93 117.341C286.421 118.073 284.715 118.439 282.811 118.439C280.95 118.439 279.324 118.139 277.933 117.539C276.541 116.923 275.376 116.074 274.439 114.99C273.516 113.891 272.82 112.609 272.352 111.145C271.897 109.68 271.67 108.09 271.67 106.376V105.871C271.67 104.157 271.897 102.568 272.352 101.103C272.82 99.6235 273.516 98.3418 274.439 97.2578C275.376 96.1592 276.534 95.3096 277.911 94.709C279.302 94.0938 280.921 93.7861 282.767 93.7861C284.744 93.7861 286.487 94.1597 287.996 94.9067C289.52 95.6538 290.713 96.7378 291.578 98.1587C292.442 99.5796 292.867 101.301 292.852 103.322H285.887C285.901 102.604 285.792 101.96 285.557 101.389C285.323 100.817 284.957 100.363 284.458 100.026C283.975 99.6748 283.353 99.499 282.591 99.499C281.829 99.499 281.214 99.6675 280.745 100.004C280.276 100.341 279.917 100.81 279.668 101.411C279.434 101.997 279.273 102.67 279.185 103.432C279.112 104.194 279.075 105.007 279.075 105.871V106.376C279.075 107.255 279.112 108.083 279.185 108.859C279.273 109.621 279.441 110.295 279.69 110.881C279.939 111.452 280.298 111.906 280.767 112.243C281.236 112.565 281.858 112.727 282.635 112.727ZM303.487 84.228V118H296.082V84.228H303.487ZM318.692 94.2256L308.365 106.333L302.959 111.738L299.729 107.036L304.234 101.169L309.815 94.2256H318.692ZM310.76 118L304.41 107.167L309.881 103.278L319.241 118H310.76Z" fill="#163852"/>
<path d="M1363 15C1363 6.71573 1356.28 0 1348 0H1134V167H1348C1356.28 167 1363 160.284 1363 152V15Z" fill="#2596BE"/>
<path fill-rule="evenodd" clip-rule="evenodd" d="M1218.5 55C1218.37 55 1218.24 55.0527 1218.15 55.1464C1218.05 55.2402 1218 55.3674 1218 55.5V111.5C1218 111.633 1218.05 111.76 1218.15 111.854C1218.24 111.947 1218.37 112 1218.5 112H1278C1278.13 112 1278.26 111.947 1278.35 111.854C1278.45 111.76 1278.5 111.633 1278.5 111.5V66C1278.5 65.8674 1278.45 65.7402 1278.35 65.6464C1278.26 65.5527 1278.13 65.5 1278 65.5H1248.25C1247.36 65.5 1246.52 65.1045 1245.95 64.4206L1238.09 55H1218.5ZM1213.9 50.9038C1215.12 49.6848 1216.78 49 1218.5 49H1239.5C1240.39 49 1241.23 49.3955 1241.8 50.0794L1249.66 59.5H1278C1279.72 59.5 1281.38 60.1848 1282.6 61.4038C1283.82 62.6228 1284.5 64.2761 1284.5 66V111.5C1284.5 113.224 1283.82 114.877 1282.6 116.096C1281.38 117.315 1279.72 118 1278 118H1218.5C1216.78 118 1215.12 117.315 1213.9 116.096C1212.68 114.877 1212 113.224 1212 111.5V55.5C1212 53.7761 1212.68 52.1228 1213.9 50.9038Z" fill="white"/>
<path fill-rule="evenodd" clip-rule="evenodd" d="M1243.72 77.5251C1245.09 78.892 1245.09 81.108 1243.72 82.4749L1237.45 88.75L1243.72 95.0251C1245.09 96.392 1245.09 98.608 1243.72 99.9749C1242.36 101.342 1240.14 101.342 1238.78 99.9749L1230.03 91.2249C1228.66 89.858 1228.66 87.642 1230.03 86.2751L1238.78 77.5251C1240.14 76.1583 1242.36 76.1583 1243.72 77.5251Z" fill="white"/>
<path fill-rule="evenodd" clip-rule="evenodd" d="M1252.03 99.9749C1250.66 98.608 1250.66 96.392 1252.03 95.0251L1258.3 88.75L1252.03 82.4749C1250.66 81.108 1250.66 78.892 1252.03 77.5251C1253.39 76.1583 1255.61 76.1583 1256.97 77.5251L1265.72 86.2751C1267.09 87.642 1267.09 89.858 1265.72 91.2249L1256.97 99.9749C1255.61 101.342 1253.39 101.342 1252.03 99.9749Z" fill="white"/>
</svg>
