<svg width="1363" height="301" viewBox="0 0 1363 301" fill="none" xmlns="http://www.w3.org/2000/svg">
<rect width="1363" height="301" rx="15" fill="#F0F0F0"/>
<path d="M0 15C0 6.71573 6.71573 0 15 0H37V301H15C6.71573 301 0 294.284 0 286V15Z" fill="#2596BE"/>
<path d="M111.551 113.116L102.017 144H91.8926L106.26 104.898H112.679L111.551 113.116ZM119.446 144L109.886 113.116L108.65 104.898H115.149L129.598 144H119.446ZM119.07 129.417V136.695H99.0093V129.417H119.07ZM153.204 104.898H162.63V130.438C162.63 133.482 161.994 136.06 160.723 138.172C159.452 140.267 157.671 141.852 155.379 142.926C153.087 144 150.393 144.537 147.295 144.537C144.234 144.537 141.539 144 139.212 142.926C136.902 141.852 135.094 140.267 133.787 138.172C132.498 136.06 131.854 133.482 131.854 130.438V104.898H141.307V130.438C141.307 132.049 141.539 133.365 142.005 134.386C142.47 135.388 143.151 136.122 144.046 136.588C144.941 137.053 146.024 137.286 147.295 137.286C148.584 137.286 149.668 137.053 150.545 136.588C151.422 136.122 152.085 135.388 152.532 134.386C152.98 133.365 153.204 132.049 153.204 130.438V104.898ZM188.707 133.607C188.707 132.998 188.617 132.452 188.438 131.969C188.259 131.467 187.928 131.002 187.444 130.572C186.961 130.143 186.263 129.713 185.35 129.283C184.454 128.836 183.273 128.37 181.805 127.887C180.086 127.314 178.43 126.669 176.836 125.953C175.243 125.219 173.82 124.369 172.566 123.402C171.313 122.417 170.319 121.271 169.585 119.964C168.851 118.639 168.484 117.1 168.484 115.345C168.484 113.662 168.86 112.149 169.612 110.807C170.364 109.446 171.412 108.291 172.754 107.342C174.115 106.375 175.708 105.641 177.535 105.14C179.361 104.621 181.357 104.361 183.523 104.361C186.388 104.361 188.912 104.863 191.097 105.865C193.299 106.85 195.018 108.255 196.253 110.082C197.506 111.89 198.133 114.029 198.133 116.5H188.76C188.76 115.515 188.554 114.647 188.143 113.895C187.749 113.143 187.149 112.552 186.343 112.123C185.538 111.693 184.526 111.478 183.309 111.478C182.127 111.478 181.133 111.657 180.328 112.015C179.522 112.373 178.913 112.857 178.501 113.465C178.09 114.056 177.884 114.71 177.884 115.426C177.884 116.017 178.045 116.554 178.367 117.037C178.707 117.503 179.182 117.941 179.791 118.353C180.417 118.765 181.169 119.159 182.046 119.535C182.942 119.911 183.944 120.278 185.054 120.636C187.131 121.298 188.975 122.041 190.586 122.865C192.216 123.67 193.585 124.592 194.695 125.631C195.823 126.651 196.674 127.815 197.247 129.122C197.837 130.429 198.133 131.906 198.133 133.553C198.133 135.308 197.793 136.865 197.112 138.226C196.432 139.587 195.456 140.742 194.185 141.69C192.914 142.621 191.392 143.329 189.62 143.812C187.847 144.295 185.869 144.537 183.685 144.537C181.679 144.537 179.701 144.286 177.75 143.785C175.816 143.266 174.061 142.478 172.486 141.422C170.91 140.348 169.648 138.978 168.699 137.313C167.768 135.63 167.303 133.634 167.303 131.324H176.756C176.756 132.47 176.908 133.437 177.212 134.225C177.517 135.012 177.964 135.648 178.555 136.131C179.146 136.597 179.871 136.937 180.73 137.152C181.59 137.349 182.575 137.447 183.685 137.447C184.884 137.447 185.851 137.277 186.585 136.937C187.319 136.579 187.856 136.113 188.196 135.541C188.536 134.95 188.707 134.305 188.707 133.607ZM221.927 104.898V144H212.5V104.898H221.927ZM233.689 104.898V112.176H201.006V104.898H233.689ZM264.573 134.789L272.71 104.898H283.265L270.079 144H263.257L264.573 134.789ZM257.188 104.898L265.325 134.789L266.695 144H259.793L246.688 104.898H257.188ZM295.269 114.942V144H286.192V114.942H295.269ZM285.655 107.45C285.655 106.161 286.12 105.104 287.051 104.281C287.982 103.457 289.191 103.045 290.677 103.045C292.163 103.045 293.371 103.457 294.302 104.281C295.233 105.104 295.699 106.161 295.699 107.45C295.699 108.739 295.233 109.795 294.302 110.619C293.371 111.442 292.163 111.854 290.677 111.854C289.191 111.854 287.982 111.442 287.051 110.619C286.12 109.795 285.655 108.739 285.655 107.45ZM309.986 122.14V144H300.936V114.942H309.395L309.986 122.14ZM318.58 114.728L318.418 123.133C318.06 123.097 317.577 123.053 316.968 122.999C316.36 122.945 315.849 122.918 315.438 122.918C314.381 122.918 313.468 123.044 312.698 123.294C311.946 123.527 311.32 123.885 310.818 124.369C310.335 124.834 309.977 125.425 309.744 126.141C309.529 126.857 309.431 127.69 309.449 128.639L307.811 127.564C307.811 125.613 307.999 123.84 308.375 122.247C308.768 120.636 309.323 119.248 310.04 118.084C310.756 116.903 311.624 115.999 312.645 115.372C313.665 114.728 314.811 114.405 316.082 114.405C316.53 114.405 316.968 114.432 317.398 114.486C317.846 114.54 318.239 114.62 318.58 114.728ZM338.345 114.942V121.227H320.835V114.942H338.345ZM324.515 107.718H333.565V134.52C333.565 135.29 333.654 135.89 333.833 136.319C334.013 136.731 334.317 137.027 334.747 137.206C335.194 137.367 335.785 137.447 336.519 137.447C337.038 137.447 337.468 137.438 337.808 137.42C338.148 137.385 338.471 137.34 338.775 137.286V143.758C338.005 144.009 337.199 144.197 336.358 144.322C335.516 144.465 334.621 144.537 333.672 144.537C331.739 144.537 330.083 144.233 328.704 143.624C327.343 143.015 326.305 142.057 325.589 140.75C324.873 139.444 324.515 137.743 324.515 135.648V107.718ZM358.917 136.937V114.942H367.994V144H359.507L358.917 136.937ZM359.776 131.029L362.139 130.975C362.139 132.927 361.906 134.735 361.441 136.4C360.975 138.047 360.286 139.479 359.373 140.697C358.478 141.914 357.368 142.863 356.043 143.543C354.736 144.206 353.223 144.537 351.504 144.537C350.072 144.537 348.756 144.34 347.557 143.946C346.375 143.535 345.354 142.899 344.495 142.04C343.636 141.162 342.964 140.043 342.481 138.683C342.015 137.304 341.783 135.657 341.783 133.741V114.942H350.833V133.795C350.833 134.439 350.914 134.994 351.075 135.46C351.236 135.925 351.469 136.319 351.773 136.642C352.077 136.946 352.453 137.179 352.901 137.34C353.366 137.483 353.895 137.555 354.485 137.555C355.846 137.555 356.911 137.268 357.681 136.695C358.451 136.122 358.988 135.344 359.292 134.359C359.615 133.374 359.776 132.264 359.776 131.029ZM388.082 136.695V124.718C388.082 123.894 387.965 123.187 387.732 122.596C387.5 122.005 387.133 121.549 386.631 121.227C386.13 120.886 385.459 120.716 384.617 120.716C383.937 120.716 383.355 120.833 382.872 121.065C382.388 121.298 382.021 121.647 381.771 122.113C381.52 122.578 381.395 123.169 381.395 123.885H372.344C372.344 122.542 372.64 121.298 373.23 120.152C373.839 118.989 374.699 117.977 375.809 117.118C376.937 116.258 378.279 115.596 379.837 115.13C381.412 114.647 383.167 114.405 385.101 114.405C387.41 114.405 389.469 114.79 391.277 115.56C393.104 116.33 394.545 117.485 395.601 119.024C396.657 120.546 397.186 122.462 397.186 124.771V136.668C397.186 138.566 397.293 140.007 397.508 140.992C397.723 141.959 398.027 142.809 398.421 143.543V144H389.344C388.914 143.105 388.592 142.013 388.377 140.724C388.18 139.417 388.082 138.074 388.082 136.695ZM389.183 126.249L389.236 131.083H385.235C384.393 131.083 383.677 131.199 383.086 131.432C382.514 131.664 382.048 131.987 381.69 132.398C381.35 132.792 381.099 133.24 380.938 133.741C380.795 134.243 380.723 134.771 380.723 135.326C380.723 135.863 380.848 136.346 381.099 136.776C381.368 137.188 381.726 137.51 382.173 137.743C382.621 137.975 383.122 138.092 383.677 138.092C384.68 138.092 385.53 137.904 386.229 137.528C386.945 137.134 387.491 136.66 387.867 136.104C388.243 135.549 388.431 135.03 388.431 134.547L390.418 138.253C390.06 138.969 389.648 139.694 389.183 140.428C388.735 141.162 388.171 141.843 387.491 142.469C386.828 143.078 386.014 143.579 385.047 143.973C384.08 144.349 382.907 144.537 381.529 144.537C379.738 144.537 378.091 144.17 376.587 143.436C375.101 142.702 373.911 141.681 373.016 140.375C372.12 139.05 371.673 137.528 371.673 135.809C371.673 134.305 371.941 132.962 372.479 131.781C373.034 130.599 373.866 129.597 374.976 128.773C376.086 127.949 377.5 127.323 379.219 126.893C380.938 126.463 382.961 126.249 385.289 126.249H389.183ZM411.768 102.75V144H402.691V102.75H411.768ZM440.02 130.76H449.419C449.294 133.482 448.56 135.881 447.217 137.958C445.875 140.034 444.013 141.655 441.631 142.818C439.268 143.964 436.475 144.537 433.252 144.537C430.639 144.537 428.302 144.098 426.243 143.221C424.202 142.344 422.465 141.082 421.033 139.435C419.619 137.787 418.536 135.791 417.784 133.446C417.05 131.1 416.683 128.46 416.683 125.523V123.402C416.683 120.466 417.068 117.825 417.837 115.479C418.625 113.116 419.735 111.111 421.167 109.464C422.618 107.799 424.354 106.528 426.377 105.65C428.401 104.773 430.647 104.334 433.118 104.334C436.52 104.334 439.393 104.943 441.739 106.161C444.084 107.378 445.901 109.052 447.19 111.183C448.479 113.295 449.24 115.703 449.473 118.407H440.074C440.038 116.939 439.787 115.712 439.322 114.728C438.856 113.725 438.122 112.973 437.12 112.472C436.117 111.97 434.783 111.72 433.118 111.72C431.954 111.72 430.943 111.935 430.083 112.364C429.224 112.794 428.508 113.474 427.935 114.405C427.362 115.336 426.932 116.545 426.646 118.031C426.377 119.499 426.243 121.271 426.243 123.348V125.523C426.243 127.6 426.368 129.373 426.619 130.841C426.87 132.309 427.273 133.508 427.828 134.439C428.383 135.37 429.099 136.06 429.976 136.507C430.871 136.937 431.963 137.152 433.252 137.152C434.685 137.152 435.893 136.928 436.878 136.48C437.863 136.015 438.624 135.317 439.161 134.386C439.698 133.437 439.984 132.228 440.02 130.76ZM468.541 136.695V124.718C468.541 123.894 468.424 123.187 468.191 122.596C467.959 122.005 467.592 121.549 467.09 121.227C466.589 120.886 465.918 120.716 465.076 120.716C464.396 120.716 463.814 120.833 463.331 121.065C462.847 121.298 462.48 121.647 462.229 122.113C461.979 122.578 461.854 123.169 461.854 123.885H452.803C452.803 122.542 453.099 121.298 453.689 120.152C454.298 118.989 455.158 117.977 456.268 117.118C457.396 116.258 458.738 115.596 460.296 115.13C461.871 114.647 463.626 114.405 465.56 114.405C467.869 114.405 469.928 114.79 471.736 115.56C473.562 116.33 475.004 117.485 476.06 119.024C477.116 120.546 477.645 122.462 477.645 124.771V136.668C477.645 138.566 477.752 140.007 477.967 140.992C478.182 141.959 478.486 142.809 478.88 143.543V144H469.803C469.373 143.105 469.051 142.013 468.836 140.724C468.639 139.417 468.541 138.074 468.541 136.695ZM469.642 126.249L469.695 131.083H465.694C464.852 131.083 464.136 131.199 463.545 131.432C462.972 131.664 462.507 131.987 462.149 132.398C461.809 132.792 461.558 133.24 461.397 133.741C461.254 134.243 461.182 134.771 461.182 135.326C461.182 135.863 461.307 136.346 461.558 136.776C461.827 137.188 462.185 137.51 462.632 137.743C463.08 137.975 463.581 138.092 464.136 138.092C465.139 138.092 465.989 137.904 466.688 137.528C467.404 137.134 467.95 136.66 468.326 136.104C468.702 135.549 468.89 135.03 468.89 134.547L470.877 138.253C470.519 138.969 470.107 139.694 469.642 140.428C469.194 141.162 468.63 141.843 467.95 142.469C467.287 143.078 466.473 143.579 465.506 143.973C464.539 144.349 463.366 144.537 461.988 144.537C460.197 144.537 458.55 144.17 457.046 143.436C455.56 142.702 454.37 141.681 453.475 140.375C452.579 139.05 452.132 137.528 452.132 135.809C452.132 134.305 452.4 132.962 452.938 131.781C453.493 130.599 454.325 129.597 455.435 128.773C456.545 127.949 457.959 127.323 459.678 126.893C461.397 126.463 463.42 126.249 465.748 126.249H469.642ZM491.797 121.092V144H482.747V114.942H491.233L491.797 121.092ZM490.696 128.478L488.628 128.531C488.628 126.49 488.87 124.61 489.354 122.892C489.837 121.173 490.553 119.678 491.502 118.407C492.451 117.136 493.615 116.151 494.993 115.453C496.39 114.754 498.001 114.405 499.827 114.405C501.098 114.405 502.253 114.602 503.292 114.996C504.33 115.372 505.225 115.972 505.977 116.795C506.729 117.601 507.302 118.657 507.696 119.964C508.108 121.253 508.313 122.802 508.313 124.61V144H499.263V125.765C499.263 124.53 499.12 123.599 498.833 122.972C498.565 122.346 498.171 121.925 497.652 121.71C497.133 121.495 496.497 121.388 495.745 121.388C494.957 121.388 494.25 121.567 493.624 121.925C492.997 122.283 492.46 122.784 492.012 123.429C491.583 124.055 491.251 124.798 491.019 125.658C490.804 126.517 490.696 127.457 490.696 128.478ZM507.293 128.478L504.769 128.531C504.769 126.49 504.992 124.61 505.44 122.892C505.905 121.173 506.595 119.678 507.508 118.407C508.439 117.136 509.594 116.151 510.972 115.453C512.351 114.754 513.953 114.405 515.779 114.405C517.104 114.405 518.322 114.602 519.432 114.996C520.542 115.39 521.5 116.026 522.305 116.903C523.111 117.78 523.737 118.944 524.185 120.394C524.633 121.826 524.856 123.599 524.856 125.711V144H515.779V125.711C515.779 124.512 515.636 123.608 515.35 122.999C515.081 122.372 514.687 121.952 514.168 121.737C513.649 121.504 513.031 121.388 512.315 121.388C511.456 121.388 510.713 121.567 510.086 121.925C509.459 122.283 508.931 122.784 508.501 123.429C508.09 124.055 507.785 124.798 507.588 125.658C507.391 126.517 507.293 127.457 507.293 128.478ZM539.17 120.528V155.172H530.12V114.942H538.553L539.17 120.528ZM557.002 129.122V129.686C557.002 131.799 556.761 133.759 556.277 135.567C555.794 137.376 555.078 138.951 554.129 140.294C553.18 141.637 551.998 142.684 550.584 143.436C549.188 144.17 547.567 144.537 545.723 144.537C543.986 144.537 542.492 144.152 541.238 143.382C539.985 142.612 538.938 141.547 538.096 140.187C537.255 138.826 536.574 137.268 536.055 135.514C535.536 133.759 535.124 131.906 534.82 129.955V129.229C535.124 127.135 535.536 125.192 536.055 123.402C536.574 121.594 537.255 120.018 538.096 118.675C538.938 117.333 539.976 116.285 541.211 115.533C542.465 114.781 543.96 114.405 545.696 114.405C547.54 114.405 549.161 114.754 550.557 115.453C551.972 116.151 553.153 117.153 554.102 118.46C555.069 119.75 555.794 121.298 556.277 123.106C556.761 124.915 557.002 126.92 557.002 129.122ZM547.952 129.686V129.122C547.952 127.994 547.872 126.965 547.71 126.034C547.549 125.085 547.29 124.261 546.932 123.563C546.591 122.865 546.135 122.328 545.562 121.952C544.989 121.576 544.282 121.388 543.44 121.388C542.474 121.388 541.659 121.54 540.997 121.844C540.352 122.131 539.833 122.578 539.439 123.187C539.063 123.778 538.794 124.521 538.633 125.416C538.49 126.293 538.427 127.323 538.445 128.504V130.707C538.41 132.067 538.544 133.267 538.848 134.305C539.153 135.326 539.681 136.122 540.433 136.695C541.185 137.268 542.205 137.555 543.494 137.555C544.354 137.555 545.07 137.358 545.643 136.964C546.215 136.552 546.672 135.988 547.012 135.272C547.352 134.538 547.594 133.696 547.737 132.748C547.881 131.799 547.952 130.778 547.952 129.686ZM578.003 136.937V114.942H587.081V144H578.594L578.003 136.937ZM578.863 131.029L581.226 130.975C581.226 132.927 580.993 134.735 580.528 136.4C580.062 138.047 579.373 139.479 578.46 140.697C577.565 141.914 576.455 142.863 575.13 143.543C573.823 144.206 572.31 144.537 570.591 144.537C569.159 144.537 567.843 144.34 566.644 143.946C565.462 143.535 564.441 142.899 563.582 142.04C562.723 141.162 562.051 140.043 561.568 138.683C561.102 137.304 560.87 135.657 560.87 133.741V114.942H569.92V133.795C569.92 134.439 570 134.994 570.162 135.46C570.323 135.925 570.556 136.319 570.86 136.642C571.164 136.946 571.54 137.179 571.988 137.34C572.453 137.483 572.981 137.555 573.572 137.555C574.933 137.555 575.998 137.268 576.768 136.695C577.538 136.122 578.075 135.344 578.379 134.359C578.702 133.374 578.863 132.264 578.863 131.029ZM607.303 135.836C607.303 135.335 607.133 134.905 606.792 134.547C606.47 134.171 605.897 133.831 605.074 133.526C604.25 133.204 603.095 132.882 601.609 132.56C600.195 132.255 598.861 131.852 597.608 131.351C596.373 130.85 595.289 130.241 594.358 129.525C593.427 128.809 592.693 127.958 592.156 126.974C591.637 125.989 591.377 124.861 591.377 123.59C591.377 122.354 591.637 121.191 592.156 120.099C592.693 118.989 593.472 118.013 594.493 117.171C595.531 116.312 596.793 115.641 598.279 115.157C599.765 114.656 601.457 114.405 603.355 114.405C605.969 114.405 608.225 114.808 610.123 115.614C612.02 116.402 613.479 117.512 614.5 118.944C615.538 120.358 616.058 121.996 616.058 123.858H607.007C607.007 123.124 606.882 122.498 606.631 121.979C606.399 121.459 606.014 121.065 605.477 120.797C604.939 120.51 604.223 120.367 603.328 120.367C602.701 120.367 602.129 120.484 601.609 120.716C601.108 120.949 600.705 121.271 600.401 121.683C600.097 122.095 599.944 122.578 599.944 123.133C599.944 123.527 600.034 123.885 600.213 124.208C600.41 124.512 600.705 124.798 601.099 125.067C601.493 125.318 601.994 125.55 602.603 125.765C603.212 125.962 603.946 126.141 604.805 126.302C606.757 126.66 608.583 127.171 610.284 127.833C611.985 128.495 613.363 129.435 614.419 130.653C615.494 131.87 616.031 133.508 616.031 135.567C616.031 136.856 615.735 138.047 615.145 139.139C614.554 140.213 613.703 141.162 612.593 141.986C611.483 142.792 610.149 143.418 608.592 143.866C607.034 144.313 605.28 144.537 603.328 144.537C600.553 144.537 598.208 144.045 596.292 143.06C594.376 142.057 592.926 140.804 591.941 139.3C590.975 137.778 590.491 136.239 590.491 134.681H598.924C598.96 135.576 599.174 136.31 599.568 136.883C599.98 137.456 600.526 137.877 601.207 138.146C601.887 138.414 602.675 138.548 603.57 138.548C604.393 138.548 605.074 138.432 605.611 138.199C606.166 137.966 606.587 137.653 606.873 137.259C607.16 136.847 607.303 136.373 607.303 135.836Z" fill="#163852"/>
<path d="M96.563 55.1172H100.904L107.295 73.3862L113.687 55.1172H118.028L109.039 80H105.552L96.563 55.1172ZM94.2217 55.1172H98.5454L99.3315 72.9248V80H94.2217V55.1172ZM116.045 55.1172H120.386V80H115.259V72.9248L116.045 55.1172ZM134.554 75.8301V67.5928C134.554 67.0003 134.457 66.4933 134.263 66.0718C134.069 65.6388 133.768 65.3027 133.357 65.0635C132.959 64.8242 132.44 64.7046 131.802 64.7046C131.255 64.7046 130.783 64.8014 130.384 64.9951C129.985 65.1774 129.677 65.4451 129.461 65.7983C129.244 66.1401 129.136 66.5446 129.136 67.0117H124.214C124.214 66.2256 124.397 65.4793 124.761 64.7729C125.126 64.0666 125.656 63.4456 126.351 62.9102C127.046 62.3633 127.872 61.936 128.829 61.6284C129.797 61.3208 130.879 61.167 132.076 61.167C133.511 61.167 134.787 61.4062 135.904 61.8848C137.02 62.3633 137.898 63.0811 138.536 64.0381C139.185 64.9951 139.51 66.1914 139.51 67.627V75.5396C139.51 76.5535 139.572 77.3853 139.698 78.0347C139.823 78.6727 140.005 79.231 140.245 79.7095V80H135.271C135.032 79.4987 134.85 78.8721 134.725 78.1201C134.611 77.3568 134.554 76.5934 134.554 75.8301ZM135.203 68.7378L135.237 71.5234H132.486C131.836 71.5234 131.272 71.5975 130.794 71.7456C130.315 71.8937 129.922 72.1045 129.615 72.3779C129.307 72.64 129.079 72.9476 128.931 73.3008C128.794 73.654 128.726 74.0413 128.726 74.4629C128.726 74.8844 128.823 75.2661 129.017 75.6079C129.21 75.9383 129.489 76.2004 129.854 76.394C130.219 76.5763 130.646 76.6675 131.136 76.6675C131.876 76.6675 132.52 76.5194 133.067 76.2231C133.614 75.9269 134.035 75.5623 134.332 75.1294C134.639 74.6965 134.799 74.2863 134.81 73.8989L136.109 75.9839C135.927 76.451 135.676 76.9352 135.357 77.4365C135.049 77.9378 134.656 78.4106 134.178 78.855C133.699 79.2879 133.124 79.6468 132.452 79.9316C131.779 80.2051 130.982 80.3418 130.059 80.3418C128.886 80.3418 127.82 80.1082 126.863 79.6411C125.918 79.1626 125.166 78.5075 124.607 77.6758C124.061 76.8327 123.787 75.8757 123.787 74.8047C123.787 73.8363 123.969 72.9761 124.334 72.2241C124.699 71.4722 125.234 70.8398 125.94 70.3271C126.658 69.8031 127.553 69.41 128.624 69.1479C129.694 68.8745 130.936 68.7378 132.349 68.7378H135.203ZM148.226 65.542V80H143.304V61.5088H147.935L148.226 65.542ZM153.797 61.3892L153.711 65.9521C153.472 65.918 153.182 65.8895 152.84 65.8667C152.509 65.8325 152.208 65.8154 151.934 65.8154C151.239 65.8154 150.635 65.9066 150.123 66.0889C149.621 66.2598 149.2 66.5161 148.858 66.8579C148.528 67.1997 148.277 67.6156 148.106 68.1055C147.946 68.5954 147.855 69.1536 147.833 69.7803L146.841 69.4727C146.841 68.2764 146.961 67.1769 147.2 66.1743C147.439 65.1603 147.787 64.2773 148.243 63.5254C148.71 62.7734 149.279 62.1924 149.952 61.7822C150.624 61.3721 151.393 61.167 152.259 61.167C152.532 61.167 152.811 61.1898 153.096 61.2354C153.381 61.2695 153.615 61.3208 153.797 61.3892ZM161.316 61.5088V80H156.377V61.5088H161.316ZM156.07 56.6895C156.07 55.9717 156.32 55.3792 156.822 54.9121C157.323 54.445 157.995 54.2114 158.838 54.2114C159.67 54.2114 160.337 54.445 160.838 54.9121C161.351 55.3792 161.607 55.9717 161.607 56.6895C161.607 57.4072 161.351 57.9997 160.838 58.4668C160.337 58.9339 159.67 59.1675 158.838 59.1675C157.995 59.1675 157.323 58.9339 156.822 58.4668C156.32 57.9997 156.07 57.4072 156.07 56.6895ZM175.364 75.8301V67.5928C175.364 67.0003 175.267 66.4933 175.074 66.0718C174.88 65.6388 174.578 65.3027 174.168 65.0635C173.769 64.8242 173.251 64.7046 172.613 64.7046C172.066 64.7046 171.593 64.8014 171.194 64.9951C170.796 65.1774 170.488 65.4451 170.271 65.7983C170.055 66.1401 169.947 66.5446 169.947 67.0117H165.025C165.025 66.2256 165.207 65.4793 165.572 64.7729C165.936 64.0666 166.466 63.4456 167.161 62.9102C167.856 62.3633 168.682 61.936 169.639 61.6284C170.608 61.3208 171.69 61.167 172.886 61.167C174.322 61.167 175.598 61.4062 176.714 61.8848C177.831 62.3633 178.708 63.0811 179.346 64.0381C179.996 64.9951 180.32 66.1914 180.32 67.627V75.5396C180.32 76.5535 180.383 77.3853 180.508 78.0347C180.634 78.6727 180.816 79.231 181.055 79.7095V80H176.082C175.843 79.4987 175.66 78.8721 175.535 78.1201C175.421 77.3568 175.364 76.5934 175.364 75.8301ZM176.014 68.7378L176.048 71.5234H173.296C172.647 71.5234 172.083 71.5975 171.604 71.7456C171.126 71.8937 170.733 72.1045 170.425 72.3779C170.118 72.64 169.89 72.9476 169.742 73.3008C169.605 73.654 169.537 74.0413 169.537 74.4629C169.537 74.8844 169.633 75.2661 169.827 75.6079C170.021 75.9383 170.3 76.2004 170.665 76.394C171.029 76.5763 171.456 76.6675 171.946 76.6675C172.687 76.6675 173.331 76.5194 173.877 76.2231C174.424 75.9269 174.846 75.5623 175.142 75.1294C175.45 74.6965 175.609 74.2863 175.621 73.8989L176.919 75.9839C176.737 76.451 176.486 76.9352 176.167 77.4365C175.86 77.9378 175.467 78.4106 174.988 78.855C174.51 79.2879 173.934 79.6468 173.262 79.9316C172.59 80.2051 171.792 80.3418 170.87 80.3418C169.696 80.3418 168.631 80.1082 167.674 79.6411C166.728 79.1626 165.976 78.5075 165.418 77.6758C164.871 76.8327 164.598 75.8757 164.598 74.8047C164.598 73.8363 164.78 72.9761 165.145 72.2241C165.509 71.4722 166.045 70.8398 166.751 70.3271C167.469 69.8031 168.363 69.41 169.434 69.1479C170.505 68.8745 171.747 68.7378 173.16 68.7378H176.014ZM189.036 65.3369V80H184.097V61.5088H188.729L189.036 65.3369ZM188.353 70.105H186.985C186.985 68.8175 187.139 67.6326 187.447 66.5503C187.766 65.4565 188.227 64.5109 188.831 63.7134C189.446 62.9045 190.204 62.2778 191.104 61.8335C192.004 61.3892 193.047 61.167 194.231 61.167C195.052 61.167 195.804 61.2923 196.487 61.543C197.171 61.7822 197.758 62.1639 198.248 62.688C198.749 63.2007 199.136 63.8729 199.41 64.7046C199.683 65.5249 199.82 66.5104 199.82 67.6611V80H194.898V68.208C194.898 67.3649 194.784 66.7155 194.556 66.2598C194.328 65.804 194.004 65.485 193.582 65.3027C193.172 65.1204 192.676 65.0293 192.095 65.0293C191.457 65.0293 190.899 65.1603 190.42 65.4224C189.953 65.6844 189.566 66.049 189.258 66.5161C188.951 66.9718 188.723 67.5073 188.575 68.1226C188.427 68.7378 188.353 69.3986 188.353 70.105ZM199.358 69.541L197.598 69.7632C197.598 68.5555 197.746 67.4333 198.042 66.3965C198.35 65.3597 198.8 64.4482 199.393 63.6621C199.996 62.876 200.743 62.2664 201.631 61.8335C202.52 61.3892 203.545 61.167 204.708 61.167C205.596 61.167 206.405 61.298 207.134 61.5601C207.863 61.8107 208.484 62.2152 208.997 62.7734C209.521 63.3203 209.92 64.0381 210.193 64.9268C210.478 65.8154 210.621 66.9035 210.621 68.1909V80H205.682V68.1909C205.682 67.3364 205.568 66.687 205.34 66.2427C205.123 65.7869 204.804 65.4736 204.383 65.3027C203.973 65.1204 203.483 65.0293 202.913 65.0293C202.321 65.0293 201.802 65.1489 201.358 65.3882C200.914 65.616 200.543 65.9351 200.247 66.3452C199.951 66.7554 199.729 67.2339 199.581 67.7808C199.432 68.3162 199.358 68.903 199.358 69.541ZM240.152 76.001V80H226.907V76.001H240.152ZM228.582 55.1172V80H223.455V55.1172H228.582ZM238.426 65.2515V69.1479H226.907V65.2515H238.426ZM240.135 55.1172V59.1333H226.907V55.1172H240.135ZM248.03 53.75V80H243.091V53.75H248.03ZM270.401 76.001V80H252.764V76.001H270.401ZM270.145 57.9712L255.037 80H251.431V77.0605L266.658 55.1172H270.145V57.9712ZM268.384 55.1172V59.1333H251.448V55.1172H268.384ZM283.338 75.8301V67.5928C283.338 67.0003 283.241 66.4933 283.047 66.0718C282.854 65.6388 282.552 65.3027 282.142 65.0635C281.743 64.8242 281.224 64.7046 280.586 64.7046C280.04 64.7046 279.567 64.8014 279.168 64.9951C278.769 65.1774 278.462 65.4451 278.245 65.7983C278.029 66.1401 277.92 66.5446 277.92 67.0117H272.999C272.999 66.2256 273.181 65.4793 273.545 64.7729C273.91 64.0666 274.44 63.4456 275.135 62.9102C275.83 62.3633 276.656 61.936 277.613 61.6284C278.581 61.3208 279.664 61.167 280.86 61.167C282.295 61.167 283.571 61.4062 284.688 61.8848C285.805 62.3633 286.682 63.0811 287.32 64.0381C287.969 64.9951 288.294 66.1914 288.294 67.627V75.5396C288.294 76.5535 288.357 77.3853 288.482 78.0347C288.607 78.6727 288.79 79.231 289.029 79.7095V80H284.056C283.816 79.4987 283.634 78.8721 283.509 78.1201C283.395 77.3568 283.338 76.5934 283.338 75.8301ZM283.987 68.7378L284.021 71.5234H281.27C280.621 71.5234 280.057 71.5975 279.578 71.7456C279.1 71.8937 278.707 72.1045 278.399 72.3779C278.091 72.64 277.863 72.9476 277.715 73.3008C277.579 73.654 277.51 74.0413 277.51 74.4629C277.51 74.8844 277.607 75.2661 277.801 75.6079C277.994 75.9383 278.274 76.2004 278.638 76.394C279.003 76.5763 279.43 76.6675 279.92 76.6675C280.66 76.6675 281.304 76.5194 281.851 76.2231C282.398 75.9269 282.819 75.5623 283.116 75.1294C283.423 74.6965 283.583 74.2863 283.594 73.8989L284.893 75.9839C284.711 76.451 284.46 76.9352 284.141 77.4365C283.833 77.9378 283.44 78.4106 282.962 78.855C282.483 79.2879 281.908 79.6468 281.236 79.9316C280.564 80.2051 279.766 80.3418 278.843 80.3418C277.67 80.3418 276.604 80.1082 275.647 79.6411C274.702 79.1626 273.95 78.5075 273.392 77.6758C272.845 76.8327 272.571 75.8757 272.571 74.8047C272.571 73.8363 272.754 72.9761 273.118 72.2241C273.483 71.4722 274.018 70.8398 274.725 70.3271C275.442 69.8031 276.337 69.41 277.408 69.1479C278.479 68.8745 279.721 68.7378 281.133 68.7378H283.987ZM302.068 75.8301V67.5928C302.068 67.0003 301.972 66.4933 301.778 66.0718C301.584 65.6388 301.282 65.3027 300.872 65.0635C300.473 64.8242 299.955 64.7046 299.317 64.7046C298.77 64.7046 298.297 64.8014 297.898 64.9951C297.5 65.1774 297.192 65.4451 296.976 65.7983C296.759 66.1401 296.651 66.5446 296.651 67.0117H291.729C291.729 66.2256 291.911 65.4793 292.276 64.7729C292.64 64.0666 293.17 63.4456 293.865 62.9102C294.56 62.3633 295.386 61.936 296.343 61.6284C297.312 61.3208 298.394 61.167 299.59 61.167C301.026 61.167 302.302 61.4062 303.418 61.8848C304.535 62.3633 305.412 63.0811 306.05 64.0381C306.7 64.9951 307.024 66.1914 307.024 67.627V75.5396C307.024 76.5535 307.087 77.3853 307.212 78.0347C307.338 78.6727 307.52 79.231 307.759 79.7095V80H302.786C302.547 79.4987 302.365 78.8721 302.239 78.1201C302.125 77.3568 302.068 76.5934 302.068 75.8301ZM302.718 68.7378L302.752 71.5234H300C299.351 71.5234 298.787 71.5975 298.309 71.7456C297.83 71.8937 297.437 72.1045 297.129 72.3779C296.822 72.64 296.594 72.9476 296.446 73.3008C296.309 73.654 296.241 74.0413 296.241 74.4629C296.241 74.8844 296.338 75.2661 296.531 75.6079C296.725 75.9383 297.004 76.2004 297.369 76.394C297.733 76.5763 298.16 76.6675 298.65 76.6675C299.391 76.6675 300.035 76.5194 300.582 76.2231C301.128 75.9269 301.55 75.5623 301.846 75.1294C302.154 74.6965 302.313 74.2863 302.325 73.8989L303.624 75.9839C303.441 76.451 303.191 76.9352 302.872 77.4365C302.564 77.9378 302.171 78.4106 301.692 78.855C301.214 79.2879 300.639 79.6468 299.966 79.9316C299.294 80.2051 298.497 80.3418 297.574 80.3418C296.4 80.3418 295.335 80.1082 294.378 79.6411C293.432 79.1626 292.68 78.5075 292.122 77.6758C291.575 76.8327 291.302 75.8757 291.302 74.8047C291.302 73.8363 291.484 72.9761 291.849 72.2241C292.213 71.4722 292.749 70.8398 293.455 70.3271C294.173 69.8031 295.067 69.41 296.138 69.1479C297.209 68.8745 298.451 68.7378 299.864 68.7378H302.718ZM319.876 61.5088V64.9951H309.109V61.5088H319.876ZM311.775 56.9458H316.697V74.4287C316.697 74.9642 316.766 75.3743 316.902 75.6592C317.05 75.944 317.267 76.1434 317.552 76.2573C317.837 76.3599 318.195 76.4111 318.628 76.4111C318.936 76.4111 319.209 76.3997 319.449 76.377C319.699 76.3428 319.91 76.3086 320.081 76.2744L320.098 79.8975C319.677 80.0342 319.221 80.1424 318.731 80.2222C318.241 80.3019 317.7 80.3418 317.107 80.3418C316.025 80.3418 315.079 80.1652 314.271 79.812C313.473 79.4474 312.858 78.8664 312.425 78.0688C311.992 77.2713 311.775 76.2231 311.775 74.9243V56.9458ZM332.659 75.8301V67.5928C332.659 67.0003 332.562 66.4933 332.369 66.0718C332.175 65.6388 331.873 65.3027 331.463 65.0635C331.064 64.8242 330.546 64.7046 329.908 64.7046C329.361 64.7046 328.888 64.8014 328.489 64.9951C328.09 65.1774 327.783 65.4451 327.566 65.7983C327.35 66.1401 327.242 66.5446 327.242 67.0117H322.32C322.32 66.2256 322.502 65.4793 322.867 64.7729C323.231 64.0666 323.761 63.4456 324.456 62.9102C325.151 62.3633 325.977 61.936 326.934 61.6284C327.903 61.3208 328.985 61.167 330.181 61.167C331.617 61.167 332.893 61.4062 334.009 61.8848C335.126 62.3633 336.003 63.0811 336.641 64.0381C337.291 64.9951 337.615 66.1914 337.615 67.627V75.5396C337.615 76.5535 337.678 77.3853 337.803 78.0347C337.929 78.6727 338.111 79.231 338.35 79.7095V80H333.377C333.138 79.4987 332.955 78.8721 332.83 78.1201C332.716 77.3568 332.659 76.5934 332.659 75.8301ZM333.309 68.7378L333.343 71.5234H330.591C329.942 71.5234 329.378 71.5975 328.899 71.7456C328.421 71.8937 328.028 72.1045 327.72 72.3779C327.413 72.64 327.185 72.9476 327.037 73.3008C326.9 73.654 326.832 74.0413 326.832 74.4629C326.832 74.8844 326.928 75.2661 327.122 75.6079C327.316 75.9383 327.595 76.2004 327.959 76.394C328.324 76.5763 328.751 76.6675 329.241 76.6675C329.982 76.6675 330.625 76.5194 331.172 76.2231C331.719 75.9269 332.141 75.5623 332.437 75.1294C332.745 74.6965 332.904 74.2863 332.916 73.8989L334.214 75.9839C334.032 76.451 333.781 76.9352 333.462 77.4365C333.155 77.9378 332.762 78.4106 332.283 78.855C331.805 79.2879 331.229 79.6468 330.557 79.9316C329.885 80.2051 329.087 80.3418 328.165 80.3418C326.991 80.3418 325.926 80.1082 324.969 79.6411C324.023 79.1626 323.271 78.5075 322.713 77.6758C322.166 76.8327 321.893 75.8757 321.893 74.8047C321.893 73.8363 322.075 72.9761 322.439 72.2241C322.804 71.4722 323.34 70.8398 324.046 70.3271C324.764 69.8031 325.658 69.41 326.729 69.1479C327.8 68.8745 329.042 68.7378 330.455 68.7378H333.309ZM346.331 65.542V80H341.409V61.5088H346.041L346.331 65.542ZM351.902 61.3892L351.817 65.9521C351.578 65.918 351.287 65.8895 350.945 65.8667C350.615 65.8325 350.313 65.8154 350.04 65.8154C349.345 65.8154 348.741 65.9066 348.228 66.0889C347.727 66.2598 347.305 66.5161 346.963 66.8579C346.633 67.1997 346.382 67.6156 346.211 68.1055C346.052 68.5954 345.961 69.1536 345.938 69.7803L344.947 69.4727C344.947 68.2764 345.066 67.1769 345.306 66.1743C345.545 65.1603 345.892 64.2773 346.348 63.5254C346.815 62.7734 347.385 62.1924 348.057 61.7822C348.729 61.3721 349.498 61.167 350.364 61.167C350.638 61.167 350.917 61.1898 351.202 61.2354C351.486 61.2695 351.72 61.3208 351.902 61.3892ZM359.422 61.5088V80H354.483V61.5088H359.422ZM354.175 56.6895C354.175 55.9717 354.426 55.3792 354.927 54.9121C355.429 54.445 356.101 54.2114 356.944 54.2114C357.776 54.2114 358.442 54.445 358.943 54.9121C359.456 55.3792 359.712 55.9717 359.712 56.6895C359.712 57.4072 359.456 57.9997 358.943 58.4668C358.442 58.9339 357.776 59.1675 356.944 59.1675C356.101 59.1675 355.429 58.9339 354.927 58.4668C354.426 57.9997 354.175 57.4072 354.175 56.6895Z" fill="#888888"/>
<rect x="92" y="181" width="1179" height="80" rx="13.3333" fill="#AACEE8"/>
<rect x="107" y="196.333" width="208" height="49.3333" rx="4.66667" fill="#2596BE" stroke="#2596BE" stroke-width="4"/>
<path d="M153.354 213.167H157.01V223.073C157.01 224.253 156.764 225.253 156.271 226.073C155.778 226.885 155.087 227.5 154.198 227.917C153.309 228.333 152.264 228.542 151.063 228.542C149.875 228.542 148.83 228.333 147.927 227.917C147.031 227.5 146.33 226.885 145.823 226.073C145.323 225.253 145.073 224.253 145.073 223.073V213.167H148.74V223.073C148.74 223.698 148.83 224.208 149.01 224.604C149.191 224.993 149.455 225.278 149.802 225.458C150.149 225.639 150.569 225.729 151.063 225.729C151.563 225.729 151.983 225.639 152.323 225.458C152.663 225.278 152.92 224.993 153.094 224.604C153.267 224.208 153.354 223.698 153.354 223.073V213.167ZM162.594 219.469V228.333H159.083V217.062H162.375L162.594 219.469ZM162.177 222.312L161.354 222.333C161.354 221.472 161.458 220.705 161.667 220.031C161.875 219.351 162.17 218.774 162.552 218.302C162.934 217.83 163.389 217.472 163.917 217.229C164.451 216.979 165.045 216.854 165.698 216.854C166.219 216.854 166.694 216.931 167.125 217.083C167.563 217.236 167.938 217.483 168.25 217.823C168.569 218.163 168.813 218.615 168.979 219.177C169.153 219.733 169.24 220.42 169.24 221.24V228.333H165.708V221.229C165.708 220.778 165.646 220.434 165.521 220.198C165.396 219.955 165.215 219.788 164.979 219.698C164.743 219.608 164.455 219.562 164.115 219.562C163.753 219.562 163.448 219.632 163.198 219.771C162.948 219.91 162.747 220.104 162.594 220.354C162.448 220.597 162.34 220.885 162.271 221.219C162.208 221.552 162.177 221.917 162.177 222.312ZM174.729 219.854V228.333H171.219V217.062H174.5L174.729 219.854ZM178.063 216.979L178 220.24C177.861 220.226 177.674 220.208 177.438 220.187C177.201 220.167 177.003 220.156 176.844 220.156C176.434 220.156 176.08 220.205 175.781 220.302C175.49 220.392 175.247 220.531 175.052 220.719C174.865 220.899 174.726 221.128 174.635 221.406C174.552 221.684 174.514 222.007 174.521 222.375L173.885 221.958C173.885 221.201 173.958 220.514 174.104 219.896C174.257 219.271 174.472 218.733 174.75 218.281C175.028 217.823 175.365 217.472 175.76 217.229C176.156 216.979 176.601 216.854 177.094 216.854C177.267 216.854 177.438 216.865 177.604 216.885C177.778 216.906 177.931 216.937 178.063 216.979ZM184.521 228.542C183.604 228.542 182.785 228.399 182.063 228.115C181.34 227.823 180.729 227.424 180.229 226.917C179.736 226.41 179.358 225.826 179.094 225.167C178.837 224.507 178.708 223.809 178.708 223.073V222.677C178.708 221.851 178.823 221.087 179.052 220.385C179.281 219.677 179.622 219.059 180.073 218.531C180.524 218.003 181.09 217.594 181.771 217.302C182.451 217.003 183.243 216.854 184.146 216.854C184.944 216.854 185.66 216.983 186.292 217.24C186.924 217.497 187.458 217.865 187.896 218.344C188.34 218.823 188.677 219.403 188.906 220.083C189.142 220.764 189.26 221.528 189.26 222.375V223.802H180.052V221.604H185.833V221.333C185.84 220.958 185.774 220.639 185.635 220.375C185.503 220.111 185.309 219.91 185.052 219.771C184.795 219.632 184.483 219.562 184.115 219.562C183.733 219.562 183.417 219.646 183.167 219.812C182.924 219.979 182.733 220.208 182.594 220.5C182.462 220.785 182.368 221.115 182.313 221.49C182.257 221.865 182.229 222.26 182.229 222.677V223.073C182.229 223.49 182.285 223.868 182.396 224.208C182.514 224.549 182.681 224.84 182.896 225.083C183.118 225.319 183.382 225.503 183.688 225.635C184 225.767 184.354 225.833 184.75 225.833C185.229 225.833 185.701 225.743 186.167 225.562C186.632 225.382 187.031 225.083 187.365 224.667L188.958 226.562C188.729 226.889 188.403 227.205 187.979 227.51C187.563 227.816 187.063 228.066 186.479 228.26C185.896 228.448 185.243 228.542 184.521 228.542ZM196.542 225.5V220.854C196.542 220.535 196.497 220.26 196.406 220.031C196.316 219.802 196.174 219.625 195.979 219.5C195.785 219.368 195.524 219.302 195.198 219.302C194.934 219.302 194.708 219.347 194.521 219.437C194.333 219.528 194.191 219.663 194.094 219.844C193.997 220.024 193.948 220.253 193.948 220.531H190.438C190.438 220.01 190.552 219.528 190.781 219.083C191.017 218.632 191.351 218.24 191.781 217.906C192.219 217.573 192.74 217.316 193.344 217.135C193.955 216.948 194.635 216.854 195.385 216.854C196.281 216.854 197.08 217.003 197.781 217.302C198.49 217.601 199.049 218.049 199.458 218.646C199.868 219.236 200.073 219.979 200.073 220.875V225.49C200.073 226.226 200.115 226.785 200.198 227.167C200.281 227.542 200.399 227.872 200.552 228.156V228.333H197.031C196.865 227.986 196.74 227.562 196.656 227.062C196.58 226.556 196.542 226.035 196.542 225.5ZM196.969 221.448L196.99 223.323H195.438C195.111 223.323 194.833 223.368 194.604 223.458C194.382 223.549 194.201 223.674 194.063 223.833C193.931 223.986 193.833 224.16 193.771 224.354C193.715 224.549 193.688 224.753 193.688 224.969C193.688 225.177 193.736 225.365 193.833 225.531C193.938 225.691 194.076 225.816 194.25 225.906C194.424 225.997 194.618 226.042 194.833 226.042C195.222 226.042 195.552 225.969 195.823 225.823C196.101 225.67 196.313 225.486 196.458 225.271C196.604 225.056 196.677 224.854 196.677 224.667L197.448 226.104C197.309 226.382 197.149 226.663 196.969 226.948C196.795 227.233 196.576 227.497 196.313 227.74C196.056 227.976 195.74 228.17 195.365 228.323C194.99 228.469 194.535 228.542 194 228.542C193.306 228.542 192.667 228.399 192.083 228.115C191.507 227.83 191.045 227.434 190.698 226.927C190.351 226.413 190.177 225.823 190.177 225.156C190.177 224.573 190.281 224.052 190.49 223.594C190.705 223.135 191.028 222.747 191.458 222.427C191.889 222.108 192.438 221.865 193.104 221.698C193.771 221.531 194.556 221.448 195.458 221.448H196.969ZM205.729 212.333V228.333H202.208V212.333H205.729ZM223.813 225.521V228.333H215.729V225.521H223.813ZM217.031 213.167V228.333H213.375V213.167H217.031ZM222.771 219.187V221.906H215.729V219.187H222.771ZM223.844 213.167V215.99H215.729V213.167H223.844ZM228.594 219.469V228.333H225.083V217.062H228.375L228.594 219.469ZM228.177 222.312L227.354 222.333C227.354 221.472 227.458 220.705 227.667 220.031C227.875 219.351 228.17 218.774 228.552 218.302C228.934 217.83 229.389 217.472 229.917 217.229C230.451 216.979 231.045 216.854 231.698 216.854C232.219 216.854 232.694 216.931 233.125 217.083C233.563 217.236 233.938 217.483 234.25 217.823C234.569 218.163 234.813 218.615 234.979 219.177C235.153 219.733 235.24 220.42 235.24 221.24V228.333H231.708V221.229C231.708 220.778 231.646 220.434 231.521 220.198C231.396 219.955 231.215 219.788 230.979 219.698C230.743 219.608 230.455 219.562 230.115 219.562C229.753 219.562 229.448 219.632 229.198 219.771C228.948 219.91 228.747 220.104 228.594 220.354C228.448 220.597 228.34 220.885 228.271 221.219C228.208 221.552 228.177 221.917 228.177 222.312ZM244.271 217.062H247.458V227.896C247.458 228.937 247.219 229.819 246.74 230.542C246.26 231.271 245.59 231.823 244.729 232.198C243.875 232.58 242.875 232.771 241.729 232.771C241.222 232.771 240.705 232.705 240.177 232.573C239.649 232.448 239.156 232.26 238.698 232.01C238.24 231.76 237.854 231.451 237.542 231.083L239.01 229.021C239.295 229.34 239.653 229.611 240.083 229.833C240.514 230.062 241.021 230.177 241.604 230.177C242.111 230.177 242.535 230.087 242.875 229.906C243.222 229.726 243.486 229.462 243.667 229.115C243.847 228.774 243.938 228.361 243.938 227.875V219.729L244.271 217.062ZM236.781 222.833V222.615C236.781 221.76 236.885 220.983 237.094 220.281C237.309 219.573 237.615 218.965 238.01 218.458C238.413 217.944 238.899 217.549 239.469 217.271C240.038 216.993 240.681 216.854 241.396 216.854C242.167 216.854 242.799 217.003 243.292 217.302C243.792 217.594 244.191 218.003 244.49 218.531C244.795 219.059 245.031 219.677 245.198 220.385C245.372 221.087 245.517 221.844 245.635 222.656V222.917C245.517 223.681 245.354 224.403 245.146 225.083C244.944 225.757 244.681 226.354 244.354 226.875C244.028 227.396 243.618 227.806 243.125 228.104C242.639 228.396 242.056 228.542 241.375 228.542C240.667 228.542 240.028 228.399 239.458 228.115C238.896 227.83 238.413 227.431 238.01 226.917C237.615 226.403 237.309 225.799 237.094 225.104C236.885 224.41 236.781 223.653 236.781 222.833ZM240.292 222.615V222.833C240.292 223.257 240.33 223.649 240.406 224.01C240.49 224.372 240.615 224.691 240.781 224.969C240.948 225.24 241.153 225.451 241.396 225.604C241.646 225.757 241.938 225.833 242.271 225.833C242.778 225.833 243.188 225.726 243.5 225.51C243.813 225.295 244.038 224.99 244.177 224.594C244.316 224.198 244.375 223.733 244.354 223.198V222.375C244.368 221.917 244.337 221.514 244.26 221.167C244.184 220.812 244.063 220.517 243.896 220.281C243.736 220.045 243.521 219.868 243.25 219.75C242.986 219.625 242.667 219.562 242.292 219.562C241.965 219.562 241.677 219.639 241.427 219.792C241.177 219.944 240.969 220.16 240.802 220.437C240.635 220.708 240.507 221.031 240.417 221.406C240.333 221.774 240.292 222.177 240.292 222.615ZM253.188 217.062V228.333H249.667V217.062H253.188ZM249.458 214.156C249.458 213.656 249.639 213.247 250 212.927C250.361 212.608 250.83 212.448 251.406 212.448C251.983 212.448 252.451 212.608 252.813 212.927C253.174 213.247 253.354 213.656 253.354 214.156C253.354 214.656 253.174 215.066 252.813 215.385C252.451 215.705 251.983 215.865 251.406 215.865C250.83 215.865 250.361 215.705 250 215.385C249.639 215.066 249.458 214.656 249.458 214.156ZM258.802 219.469V228.333H255.292V217.062H258.583L258.802 219.469ZM258.385 222.312L257.563 222.333C257.563 221.472 257.667 220.705 257.875 220.031C258.083 219.351 258.378 218.774 258.76 218.302C259.142 217.83 259.597 217.472 260.125 217.229C260.66 216.979 261.253 216.854 261.906 216.854C262.427 216.854 262.903 216.931 263.333 217.083C263.771 217.236 264.146 217.483 264.458 217.823C264.778 218.163 265.021 218.615 265.188 219.177C265.361 219.733 265.448 220.42 265.448 221.24V228.333H261.917V221.229C261.917 220.778 261.854 220.434 261.729 220.198C261.604 219.955 261.424 219.788 261.188 219.698C260.951 219.608 260.663 219.562 260.323 219.562C259.962 219.562 259.656 219.632 259.406 219.771C259.156 219.91 258.955 220.104 258.802 220.354C258.656 220.597 258.549 220.885 258.479 221.219C258.417 221.552 258.385 221.917 258.385 222.312ZM272.854 228.542C271.938 228.542 271.118 228.399 270.396 228.115C269.674 227.823 269.063 227.424 268.563 226.917C268.069 226.41 267.691 225.826 267.427 225.167C267.17 224.507 267.042 223.809 267.042 223.073V222.677C267.042 221.851 267.156 221.087 267.385 220.385C267.615 219.677 267.955 219.059 268.406 218.531C268.858 218.003 269.424 217.594 270.104 217.302C270.785 217.003 271.576 216.854 272.479 216.854C273.278 216.854 273.993 216.983 274.625 217.24C275.257 217.497 275.792 217.865 276.229 218.344C276.674 218.823 277.01 219.403 277.24 220.083C277.476 220.764 277.594 221.528 277.594 222.375V223.802H268.385V221.604H274.167V221.333C274.174 220.958 274.108 220.639 273.969 220.375C273.837 220.111 273.642 219.91 273.385 219.771C273.128 219.632 272.816 219.562 272.448 219.562C272.066 219.562 271.75 219.646 271.5 219.812C271.257 219.979 271.066 220.208 270.927 220.5C270.795 220.785 270.701 221.115 270.646 221.49C270.59 221.865 270.563 222.26 270.563 222.677V223.073C270.563 223.49 270.618 223.868 270.729 224.208C270.847 224.549 271.014 224.84 271.229 225.083C271.451 225.319 271.715 225.503 272.021 225.635C272.333 225.767 272.688 225.833 273.083 225.833C273.563 225.833 274.035 225.743 274.5 225.562C274.965 225.382 275.365 225.083 275.698 224.667L277.292 226.562C277.063 226.889 276.736 227.205 276.313 227.51C275.896 227.816 275.396 228.066 274.813 228.26C274.229 228.448 273.576 228.542 272.854 228.542Z" fill="white"/>
<rect x="339" y="196.333" width="208" height="49.3333" rx="4.66667" fill="#2596BE" stroke="#2596BE" stroke-width="4"/>
<path d="M412.833 221.885H408.927L408.906 219.49H412.073C412.642 219.49 413.097 219.427 413.437 219.302C413.778 219.17 414.024 218.979 414.177 218.729C414.337 218.479 414.417 218.167 414.417 217.792C414.417 217.361 414.337 217.014 414.177 216.75C414.017 216.486 413.764 216.295 413.417 216.177C413.076 216.052 412.635 215.99 412.094 215.99H410.302V228.333H406.646V213.167H412.094C413.031 213.167 413.868 213.253 414.604 213.427C415.34 213.594 415.965 213.851 416.479 214.198C417 214.545 417.396 214.983 417.667 215.51C417.937 216.031 418.073 216.646 418.073 217.354C418.073 217.972 417.941 218.552 417.677 219.094C417.413 219.635 416.972 220.076 416.354 220.417C415.743 220.75 414.906 220.924 413.844 220.937L412.833 221.885ZM412.687 228.333H408.042L409.292 225.521H412.687C413.187 225.521 413.587 225.444 413.885 225.292C414.191 225.132 414.41 224.924 414.542 224.667C414.681 224.403 414.75 224.111 414.75 223.792C414.75 223.403 414.684 223.066 414.552 222.781C414.427 222.497 414.226 222.278 413.948 222.125C413.67 221.965 413.299 221.885 412.833 221.885H409.76L409.781 219.49H413.458L414.312 220.448C415.326 220.406 416.128 220.549 416.719 220.875C417.316 221.201 417.743 221.632 418 222.167C418.257 222.701 418.385 223.26 418.385 223.844C418.385 224.837 418.17 225.667 417.74 226.333C417.316 227 416.681 227.5 415.833 227.833C414.986 228.167 413.937 228.333 412.687 228.333ZM423.958 212.333V228.333H420.437V212.333H423.958ZM431.583 228.542C430.667 228.542 429.847 228.399 429.125 228.115C428.403 227.823 427.792 227.424 427.292 226.917C426.799 226.41 426.42 225.826 426.156 225.167C425.899 224.507 425.771 223.809 425.771 223.073V222.677C425.771 221.851 425.885 221.087 426.115 220.385C426.344 219.677 426.684 219.059 427.135 218.531C427.587 218.003 428.153 217.594 428.833 217.302C429.514 217.003 430.306 216.854 431.208 216.854C432.007 216.854 432.722 216.983 433.354 217.24C433.986 217.497 434.521 217.865 434.958 218.344C435.403 218.823 435.74 219.403 435.969 220.083C436.205 220.764 436.323 221.528 436.323 222.375V223.802H427.115V221.604H432.896V221.333C432.903 220.958 432.837 220.639 432.698 220.375C432.566 220.111 432.372 219.91 432.115 219.771C431.858 219.632 431.545 219.562 431.177 219.562C430.795 219.562 430.479 219.646 430.229 219.812C429.986 219.979 429.795 220.208 429.656 220.5C429.524 220.785 429.431 221.115 429.375 221.49C429.319 221.865 429.292 222.26 429.292 222.677V223.073C429.292 223.49 429.347 223.868 429.458 224.208C429.576 224.549 429.743 224.84 429.958 225.083C430.181 225.319 430.444 225.503 430.75 225.635C431.062 225.767 431.417 225.833 431.812 225.833C432.292 225.833 432.764 225.743 433.229 225.562C433.694 225.382 434.094 225.083 434.427 224.667L436.021 226.562C435.792 226.889 435.465 227.205 435.042 227.51C434.625 227.816 434.125 228.066 433.542 228.26C432.958 228.448 432.306 228.542 431.583 228.542ZM441.198 219.469V228.333H437.687V217.062H440.979L441.198 219.469ZM440.781 222.312L439.958 222.333C439.958 221.472 440.062 220.705 440.271 220.031C440.479 219.351 440.774 218.774 441.156 218.302C441.538 217.83 441.993 217.472 442.521 217.229C443.056 216.979 443.649 216.854 444.302 216.854C444.823 216.854 445.299 216.931 445.729 217.083C446.167 217.236 446.542 217.483 446.854 217.823C447.174 218.163 447.417 218.615 447.583 219.177C447.757 219.733 447.844 220.42 447.844 221.24V228.333H444.312V221.229C444.312 220.778 444.25 220.434 444.125 220.198C444 219.955 443.819 219.788 443.583 219.698C443.347 219.608 443.059 219.562 442.719 219.562C442.358 219.562 442.052 219.632 441.802 219.771C441.552 219.91 441.351 220.104 441.198 220.354C441.052 220.597 440.944 220.885 440.875 221.219C440.812 221.552 440.781 221.917 440.781 222.312ZM456.271 225.75V212.333H459.802V228.333H456.635L456.271 225.75ZM449.354 222.833V222.615C449.354 221.76 449.448 220.983 449.635 220.281C449.823 219.573 450.101 218.965 450.469 218.458C450.837 217.944 451.295 217.549 451.844 217.271C452.392 216.993 453.024 216.854 453.74 216.854C454.378 216.854 454.937 217.003 455.417 217.302C455.896 217.594 456.306 218.003 456.646 218.531C456.986 219.059 457.264 219.677 457.479 220.385C457.694 221.087 457.858 221.844 457.969 222.656V222.917C457.858 223.681 457.694 224.403 457.479 225.083C457.264 225.757 456.986 226.354 456.646 226.875C456.306 227.396 455.892 227.806 455.406 228.104C454.927 228.396 454.365 228.542 453.719 228.542C453.003 228.542 452.372 228.399 451.823 228.115C451.281 227.83 450.826 227.431 450.458 226.917C450.097 226.403 449.823 225.799 449.635 225.104C449.448 224.41 449.354 223.653 449.354 222.833ZM452.865 222.615V222.833C452.865 223.257 452.892 223.649 452.948 224.01C453.003 224.372 453.097 224.691 453.229 224.969C453.368 225.24 453.549 225.451 453.771 225.604C454 225.757 454.281 225.833 454.615 225.833C455.066 225.833 455.437 225.726 455.729 225.51C456.028 225.295 456.247 224.99 456.385 224.594C456.531 224.198 456.594 223.733 456.573 223.198V222.375C456.587 221.917 456.556 221.514 456.479 221.167C456.403 220.812 456.281 220.517 456.115 220.281C455.955 220.045 455.75 219.868 455.5 219.75C455.257 219.625 454.969 219.562 454.635 219.562C454.309 219.562 454.031 219.639 453.802 219.792C453.58 219.944 453.399 220.16 453.26 220.437C453.122 220.708 453.021 221.031 452.958 221.406C452.896 221.774 452.865 222.177 452.865 222.615ZM467.25 228.542C466.333 228.542 465.514 228.399 464.792 228.115C464.069 227.823 463.458 227.424 462.958 226.917C462.465 226.41 462.087 225.826 461.823 225.167C461.566 224.507 461.437 223.809 461.437 223.073V222.677C461.437 221.851 461.552 221.087 461.781 220.385C462.01 219.677 462.351 219.059 462.802 218.531C463.253 218.003 463.819 217.594 464.5 217.302C465.181 217.003 465.972 216.854 466.875 216.854C467.674 216.854 468.389 216.983 469.021 217.24C469.653 217.497 470.187 217.865 470.625 218.344C471.069 218.823 471.406 219.403 471.635 220.083C471.872 220.764 471.99 221.528 471.99 222.375V223.802H462.781V221.604H468.562V221.333C468.569 220.958 468.503 220.639 468.365 220.375C468.233 220.111 468.038 219.91 467.781 219.771C467.524 219.632 467.212 219.562 466.844 219.562C466.462 219.562 466.146 219.646 465.896 219.812C465.653 219.979 465.462 220.208 465.323 220.5C465.191 220.785 465.097 221.115 465.042 221.49C464.986 221.865 464.958 222.26 464.958 222.677V223.073C464.958 223.49 465.014 223.868 465.125 224.208C465.243 224.549 465.41 224.84 465.625 225.083C465.847 225.319 466.111 225.503 466.417 225.635C466.729 225.767 467.083 225.833 467.479 225.833C467.958 225.833 468.431 225.743 468.896 225.562C469.361 225.382 469.76 225.083 470.094 224.667L471.687 226.562C471.458 226.889 471.132 227.205 470.708 227.51C470.292 227.816 469.792 228.066 469.208 228.26C468.625 228.448 467.972 228.542 467.25 228.542ZM476.958 219.854V228.333H473.448V217.062H476.729L476.958 219.854ZM480.292 216.979L480.229 220.24C480.09 220.226 479.903 220.208 479.667 220.187C479.431 220.167 479.233 220.156 479.073 220.156C478.663 220.156 478.309 220.205 478.01 220.302C477.719 220.392 477.476 220.531 477.281 220.719C477.094 220.899 476.955 221.128 476.865 221.406C476.781 221.684 476.743 222.007 476.75 222.375L476.115 221.958C476.115 221.201 476.187 220.514 476.333 219.896C476.486 219.271 476.701 218.733 476.979 218.281C477.257 217.823 477.594 217.472 477.99 217.229C478.385 216.979 478.83 216.854 479.323 216.854C479.497 216.854 479.667 216.865 479.833 216.885C480.007 216.906 480.16 216.937 480.292 216.979Z" fill="white"/>
<rect x="571" y="196.333" width="208" height="49.3333" rx="4.66667" fill="#2596BE" stroke="#2596BE" stroke-width="4"/>
<path d="M643.26 213.167H646.24L649.625 223.719L653.01 213.167H655.99L650.833 228.333H648.417L643.26 213.167ZM641.448 213.167H644.531L645.104 224.792V228.333H641.448V213.167ZM654.719 213.167H657.812V228.333H654.146V224.792L654.719 213.167ZM663.448 227.01L666.365 217.062H670.135L665.604 230.01C665.507 230.295 665.378 230.601 665.219 230.927C665.059 231.26 664.84 231.576 664.563 231.875C664.285 232.174 663.927 232.417 663.49 232.604C663.059 232.792 662.524 232.885 661.885 232.885C661.545 232.885 661.295 232.868 661.135 232.833C660.983 232.806 660.747 232.753 660.427 232.677V230.167C660.517 230.167 660.594 230.167 660.656 230.167C660.726 230.167 660.802 230.167 660.885 230.167C661.26 230.167 661.559 230.128 661.781 230.052C662.01 229.976 662.184 229.865 662.302 229.719C662.427 229.573 662.524 229.396 662.594 229.187L663.448 227.01ZM662.708 217.062L664.927 224.948L665.313 228.667H662.958L658.948 217.062H662.708ZM679.031 224.302C679.031 224.066 678.997 223.854 678.927 223.667C678.858 223.472 678.729 223.292 678.542 223.125C678.354 222.958 678.083 222.792 677.729 222.625C677.382 222.451 676.924 222.271 676.354 222.083C675.688 221.861 675.045 221.611 674.427 221.333C673.809 221.049 673.257 220.719 672.771 220.344C672.285 219.962 671.899 219.517 671.615 219.01C671.33 218.497 671.188 217.899 671.188 217.219C671.188 216.566 671.333 215.979 671.625 215.458C671.917 214.931 672.323 214.483 672.844 214.115C673.372 213.74 673.99 213.455 674.698 213.26C675.406 213.059 676.181 212.958 677.021 212.958C678.132 212.958 679.111 213.153 679.958 213.542C680.813 213.924 681.479 214.469 681.958 215.177C682.444 215.878 682.688 216.708 682.688 217.667H679.052C679.052 217.285 678.972 216.948 678.813 216.656C678.66 216.365 678.427 216.135 678.115 215.969C677.802 215.802 677.41 215.719 676.938 215.719C676.479 215.719 676.094 215.788 675.781 215.927C675.469 216.066 675.233 216.253 675.073 216.49C674.913 216.719 674.833 216.972 674.833 217.25C674.833 217.479 674.896 217.687 675.021 217.875C675.153 218.056 675.337 218.226 675.573 218.385C675.816 218.545 676.108 218.698 676.448 218.844C676.795 218.99 677.184 219.132 677.615 219.271C678.42 219.528 679.135 219.816 679.76 220.135C680.392 220.448 680.924 220.806 681.354 221.208C681.792 221.604 682.122 222.056 682.344 222.562C682.573 223.069 682.688 223.642 682.688 224.281C682.688 224.962 682.556 225.566 682.292 226.094C682.028 226.622 681.649 227.069 681.156 227.437C680.663 227.799 680.073 228.073 679.385 228.26C678.698 228.448 677.931 228.542 677.083 228.542C676.306 228.542 675.538 228.444 674.781 228.25C674.031 228.049 673.351 227.743 672.74 227.333C672.128 226.917 671.639 226.385 671.271 225.74C670.91 225.087 670.729 224.312 670.729 223.417H674.396C674.396 223.861 674.455 224.236 674.573 224.542C674.691 224.847 674.865 225.094 675.094 225.281C675.323 225.462 675.604 225.594 675.938 225.677C676.271 225.753 676.653 225.792 677.083 225.792C677.549 225.792 677.924 225.726 678.208 225.594C678.493 225.455 678.701 225.274 678.833 225.052C678.965 224.823 679.031 224.573 679.031 224.302ZM693.031 225.833L697.26 229.187L694.99 231.104L690.833 227.75L693.031 225.833ZM697.437 220.448V221.062C697.437 222.222 697.274 223.264 696.948 224.187C696.628 225.104 696.17 225.889 695.573 226.542C694.983 227.187 694.285 227.684 693.479 228.031C692.674 228.372 691.785 228.542 690.812 228.542C689.833 228.542 688.937 228.372 688.125 228.031C687.319 227.684 686.618 227.187 686.021 226.542C685.431 225.889 684.972 225.104 684.646 224.187C684.326 223.264 684.167 222.222 684.167 221.062V220.448C684.167 219.288 684.326 218.247 684.646 217.323C684.972 216.399 685.427 215.615 686.01 214.969C686.601 214.316 687.299 213.819 688.104 213.479C688.917 213.132 689.812 212.958 690.792 212.958C691.764 212.958 692.653 213.132 693.458 213.479C694.271 213.819 694.972 214.316 695.562 214.969C696.16 215.615 696.622 216.399 696.948 217.323C697.274 218.247 697.437 219.288 697.437 220.448ZM693.719 221.062V220.427C693.719 219.677 693.653 219.017 693.521 218.448C693.396 217.872 693.208 217.389 692.958 217C692.708 216.611 692.399 216.319 692.031 216.125C691.67 215.924 691.257 215.823 690.792 215.823C690.306 215.823 689.882 215.924 689.521 216.125C689.16 216.319 688.858 216.611 688.615 217C688.372 217.389 688.187 217.872 688.062 218.448C687.944 219.017 687.885 219.677 687.885 220.427V221.062C687.885 221.806 687.944 222.465 688.062 223.042C688.187 223.611 688.372 224.094 688.615 224.49C688.865 224.885 689.17 225.184 689.531 225.385C689.899 225.587 690.326 225.687 690.812 225.687C691.278 225.687 691.691 225.587 692.052 225.385C692.413 225.184 692.715 224.885 692.958 224.49C693.208 224.094 693.396 223.611 693.521 223.042C693.653 222.465 693.719 221.806 693.719 221.062ZM709.323 225.521V228.333H701.656V225.521H709.323ZM702.958 213.167V228.333H699.302V213.167H702.958Z" fill="white"/>
</svg>
